<svg width="726" height="458" viewBox="0 0 726 458" fill="none" xmlns="http://www.w3.org/2000/svg">
<path d="M383.038 69.7229C337.373 58.9872 304.125 69.4224 266.147 82.5245C247.423 88.9846 228.475 95.8172 208.748 98.4165C194.024 100.355 179.148 100.872 164.37 102.341C149.003 103.865 133.644 105.791 118.561 109.182C93.1565 114.893 48.9055 125.417 51.6233 159.622C52.7112 173.317 62.0584 185.767 61.1144 199.475C59.9037 217.047 43.5122 230.653 32.7765 243.065C17.9556 260.202 4.6248 279.218 7.06743 303.039C9.04017 322.25 21.52 339.132 36.904 350.812C52.2921 362.488 70.4997 369.735 88.4363 376.889C115.762 387.786 138.872 400.549 160.365 420.814C172.819 432.553 186.078 444.182 202.216 449.872C223.903 457.517 251.551 450.867 260.382 427.901C265.195 415.379 266.55 400.803 274.017 389.428C281.709 377.715 297.927 367.855 312.231 369.752C335.532 372.842 344.621 390.127 355.725 408.309C361.148 417.191 367.587 425.365 376.697 430.699C392.322 439.843 407.934 436.275 424.411 432.566C442.207 428.557 460.191 425.319 478.309 423.151C509.052 419.477 539.981 421.123 570.613 424.988C599.696 428.659 641.932 447.781 665.918 421.826C676.429 410.455 678.521 394.889 674.694 380.365C669.207 359.55 657.405 336.444 658.044 314.829C658.984 282.914 673.369 261.671 690.95 236.736C699.37 224.794 705.855 211.527 705.55 196.587C704.852 162.217 683.309 135.826 660.842 112.128C638.422 88.4851 616.028 61.5399 593.346 40.5722" stroke="#FF7258" stroke-width="1.6256" stroke-miterlimit="10"/>
<path d="M709.568 104.821C709.568 109.813 705.521 113.86 700.525 113.86C695.534 113.86 691.483 109.813 691.483 104.821C691.483 99.8262 695.534 95.7791 700.525 95.7791C705.521 95.7791 709.568 99.8262 709.568 104.821Z" stroke="#FF7258" stroke-width="1.6256" stroke-miterlimit="10"/>
<path d="M406.863 410.951C406.863 415.946 402.816 419.993 397.821 419.993C392.83 419.993 388.779 415.946 388.779 410.951C388.779 405.96 392.83 401.913 397.821 401.913C402.816 401.913 406.863 405.96 406.863 410.951Z" stroke="#FF7258" stroke-width="1.6256" stroke-miterlimit="10"/>
<path d="M375.283 15.6336H114.501C109.857 15.6336 106.077 19.414 106.077 24.058V158.42C106.077 163.064 109.857 166.844 114.501 166.844H375.283C379.927 166.844 383.703 163.064 383.703 158.42V24.058C383.703 19.414 379.927 15.6336 375.283 15.6336ZM375.283 17.2592C379.038 17.2592 382.077 20.303 382.077 24.058V158.42C382.077 162.175 379.038 165.218 375.283 165.218H114.501C110.746 165.218 107.702 162.175 107.702 158.42V24.058C107.702 20.303 110.746 17.2592 114.501 17.2592" fill="white"/>
<path d="M375.283 165.218H114.501C110.746 165.218 107.702 162.175 107.702 158.42V35.3821H382.077V158.42C382.077 162.175 379.038 165.218 375.283 165.218Z" fill="#ACBAEA"/>
<path d="M123.662 26.852C123.662 29.0025 121.922 30.7424 119.771 30.7424C117.625 30.7424 115.885 29.0025 115.885 26.852C115.885 24.7057 117.625 22.9615 119.771 22.9615C121.922 22.9615 123.662 24.7057 123.662 26.852Z" stroke="white" stroke-width="1.6256" stroke-miterlimit="10"/>
<path d="M138.741 26.852C138.741 29.0025 136.997 30.7424 134.851 30.7424C132.704 30.7424 130.96 29.0025 130.96 26.852C130.96 24.7057 132.704 22.9615 134.851 22.9615C136.997 22.9615 138.741 24.7057 138.741 26.852Z" stroke="white" stroke-width="1.6256" stroke-miterlimit="10"/>
<path d="M107.702 35.3821H382.081" stroke="white" stroke-width="1.6256" stroke-miterlimit="10"/>
<path d="M360.022 146.372C357.261 142.714 352.554 139.349 348.879 141.867C345.793 143.98 345.679 148.751 345.916 152.717C337.17 140.339 326.764 129.354 315.131 120.231C308.832 115.286 301.585 110.719 293.842 111.315C286.103 111.908 282.086 122.775 284.122 130.95C262.981 102.959 239.405 83.1045 214.856 65.9214C206.474 60.0582 197.174 54.4067 187.234 51.0624C176.659 47.5064 162.054 43.3408 152.499 51.5958C148.406 55.1349 146.272 60.5281 145.692 65.9087C144.972 72.5677 146.103 79.5951 147.915 86.0086C152.254 101.354 159.213 115.824 167.286 129.451C175.364 143.087 193.127 165.472 193.127 165.472H368.429C367.087 158.496 364.174 151.879 360.022 146.372Z" fill="#8B9EF7"/>
<path d="M267.836 138.049C267.836 138.049 234.181 108.86 219.746 103.911C205.31 98.9625 175.647 106.913 175.275 106.913C174.902 106.913 148.723 165.223 148.723 165.223H256.093" fill="#FF983F"/>
<path d="M331.773 217.297C334.228 219.858 336.776 222.322 339.414 224.693C341.962 226.979 344.752 229.019 347.237 231.36C347.851 231.936 348.41 232.567 348.964 233.197C350.996 235.5 353.045 237.82 354.523 240.504C354.721 240.864 354.912 241.236 355.208 241.516C355.505 241.795 355.936 241.973 356.326 241.854C356.732 241.736 356.991 241.338 357.164 240.953C357.88 239.34 357.702 237.473 357.266 235.767C356.982 234.671 356.601 233.599 356.292 232.507C356.038 231.606 355.666 230.632 355.805 229.692C363.015 232.706 368.878 238.163 375.452 242.384C376.798 243.251 379.766 243.573 380.265 242.384C380.926 240.809 371.333 233.701 366.939 229.002C370.254 230.695 373.767 232.469 376.756 234.696C378.826 236.237 381.091 237.553 383.559 238.341C384.947 238.781 388.135 239.433 387.483 236.901C387.293 236.152 386.73 235.564 386.175 235.03C381.883 230.856 376.697 227.914 372.184 223.981C377.264 225.984 381.929 229.578 387.386 229.764C387.919 229.785 388.491 229.756 388.914 229.425C389.549 228.93 389.761 228.236 389.35 227.542C388.931 226.847 388.216 226.399 387.526 225.975C382.463 222.876 377.184 219.456 372.12 216.357C374.843 217.094 377.361 218.431 379.973 219.502C382.581 220.582 385.396 221.412 388.194 221.06C389.096 220.95 390.214 220.37 390.011 219.486C389.913 219.058 389.524 218.77 389.16 218.52C383.004 214.312 376.849 210.104 370.694 205.897C368.967 204.715 367.239 203.534 365.47 202.421C363.336 201.079 360.877 200.084 358.896 198.573C357.35 197.396 355.483 196.524 353.824 195.504C349.726 192.985 345.76 190.271 341.916 187.393" fill="#FFCBA2"/>
<path d="M355.94 229.671C354.001 228.816 352.033 228.033 350.039 227.317" stroke="black" stroke-width="1.08373" stroke-miterlimit="10"/>
<path d="M367.231 228.989C364.598 227.19 361.876 225.531 359.073 224.015" stroke="black" stroke-width="1.08373" stroke-miterlimit="10"/>
<path d="M372.197 223.88C370.038 222.508 367.879 221.141 365.72 219.773" stroke="black" stroke-width="1.08373" stroke-miterlimit="10"/>
<path d="M374.576 217.695C372.971 216.81 371.422 215.815 369.949 214.723" stroke="black" stroke-width="1.08373" stroke-miterlimit="10"/>
<path d="M227.493 104.822C240.79 109 247.462 109.381 259.353 116.76C271.989 124.6 303.257 157.543 303.257 157.543C303.257 157.543 345.446 187.287 361.258 198.535L332.852 225.607C301.437 206.828 269.187 184.404 245.375 156.608" fill="#FF983F"/>
<path d="M179.258 159.567C179.258 159.567 192.441 152.497 198.245 151.037C206.28 149.013 215.813 148.446 218.37 149.221C219.568 149.585 224.068 151.435 226.426 154.191C228.928 155.287 229.944 155.833 231.43 156.46C232.916 157.086 233.614 158.835 235.172 160.168C236.726 161.502 238.432 165.214 238.432 165.214C238.432 165.214 226.57 165.252 223.238 165.367C219.903 165.477 216.304 171.839 208.845 174.096" fill="#FFCBA2"/>
<path d="M206.419 99.5764C197.275 99.5002 188.368 97.1168 179.237 97.1126C162.659 97.1041 153.143 105.804 145.078 117.86C138.97 126.987 133.221 138.223 128.894 148.247C123.844 159.944 118.188 172.974 116.715 185.75C116.038 191.596 116.876 197.633 119.581 202.827C124.58 212.437 135.689 214.113 142.166 214.833C148.647 215.557 160.001 213.368 165.563 209.918C194.833 191.77 214.183 173.584 214.183 173.584L182.696 157.442L167.591 163.352L186.667 128.088" fill="#FF983F"/>
<path d="M185.117 130.95L167.591 163.352" stroke="black" stroke-width="1.08373" stroke-miterlimit="10"/>
<path d="M182.696 157.442C173.666 160.947 164.636 164.452 155.611 167.953C149.443 170.345 143.402 175.078 138.491 179.476" stroke="black" stroke-width="1.08373" stroke-miterlimit="10"/>
<path d="M171.88 161.845L204.497 181.915" stroke="black" stroke-width="1.08373" stroke-miterlimit="10"/>
<path d="M259.56 146.139C255.238 153.276 249.261 165.214 249.261 165.214" stroke="black" stroke-width="1.08373" stroke-miterlimit="10"/>
<path d="M349.739 190.369L318.095 216.725" stroke="black" stroke-width="1.08373" stroke-miterlimit="10"/>
<path d="M225.207 157.573C227.501 158.183 229.834 158.64 232.188 158.949C232.916 159.046 233.674 159.135 234.287 159.533" stroke="black" stroke-width="1.08373" stroke-miterlimit="10"/>
<path d="M227.23 154.809C226.824 154.606 226.396 154.449 225.964 154.288C223.695 153.454 221.354 152.607 218.937 152.671" stroke="black" stroke-width="1.08373" stroke-miterlimit="10"/>
<path d="M219.86 166.687C221.088 165.803 222.603 165.401 224.11 165.244C227.23 164.922 230.575 165.595 233.572 164.418" stroke="black" stroke-width="1.08373" stroke-miterlimit="10"/>
<path d="M102.563 188.015C103.067 200.368 110.949 212.132 122.18 217.301" stroke="black" stroke-width="1.08373" stroke-miterlimit="10"/>
<path d="M93.821 187.482C94.075 195.538 97.4024 203.348 102.563 207.996" stroke="black" stroke-width="1.08373" stroke-miterlimit="10"/>
<path d="M271.422 109.305C281.049 117.458 289.994 126.416 298.13 136.064" stroke="black" stroke-width="1.08373" stroke-miterlimit="10"/>
<path d="M271.634 99.6399C278.348 104.631 284.503 110.371 289.947 116.726" stroke="black" stroke-width="1.08373" stroke-miterlimit="10"/>
<path d="M193.876 116.01C188.788 114.181 184.072 111.464 179.419 108.708C177.446 107.539 175.453 106.346 173.857 104.695C172.265 103.044 171.092 100.859 171.139 98.5646C171.181 96.4564 172.239 94.4837 173.552 92.8285C177.654 87.6638 184.283 84.9799 190.849 84.383C197.419 83.7903 204.006 85.0561 210.424 86.5716C220.076 88.8491 229.923 91.876 237.369 98.4207C239.465 100.266 241.361 102.4 242.53 104.936C244.147 108.433 244.265 112.475 243.575 116.268C242.885 120.057 241.429 123.664 239.985 127.237" fill="#FF983F"/>
<path d="M219.978 77.8933L207.003 81.6736L207.295 88.1972L200.725 99.3986C200.725 99.3986 216.253 105.414 222.087 117.674C228.445 118.618 230.994 113.462 230.994 113.462L237.242 98.4842" fill="#FFCBA2"/>
<path d="M250.51 90.9108C251.627 84.4803 252.973 77.5207 252.868 72.3984C252.779 68.0635 252.118 61.5145 249.316 58.1194C245.713 53.7463 239.147 53.6744 233.64 53.0605C224.593 52.053 218.34 60.2487 215.661 67.9026C213.603 73.7869 213.773 79.5273 215.678 85.5895C218.167 93.51 227.002 104.153 238.487 102.849C244.587 102.154 249.324 97.7222 250.51 90.9108Z" fill="#FFCBA2"/>
<path d="M239.405 76.8561C239.295 77.8128 238.614 78.524 237.881 78.4394C237.149 78.3547 236.641 77.508 236.755 76.5513C236.865 75.5946 237.547 74.8876 238.279 74.9723C239.012 75.0569 239.515 75.8994 239.405 76.8561Z" fill="black"/>
<path d="M251.928 78.0457C251.813 79.0024 251.132 79.7094 250.399 79.6247C249.667 79.54 249.163 78.6976 249.273 77.7366C249.383 76.7799 250.069 76.0729 250.802 76.1576C251.534 76.2423 252.038 77.0889 251.928 78.0457Z" fill="black"/>
<path d="M246.374 75.9248C246.098 78.143 246.327 80.3952 246.331 82.6177C246.331 83.9935 246.382 86.4192 244.596 86.7282C243.423 86.9357 240.866 86.2372 240.866 86.2372" stroke="black" stroke-width="1.08373" stroke-miterlimit="10"/>
<path d="M241.865 90.1657L237.174 86.216C237.174 86.216 233.733 90.7203 235.511 92.3501C238.385 94.9875 241.865 90.1657 241.865 90.1657Z" fill="white"/>
<path d="M249.481 59.491C251.551 62.7252 252.694 65.3287 252.783 75.0442C253.769 74.7945 254.777 74.5405 255.666 74.0409C256.555 73.5414 257.334 72.7582 257.596 71.7719C258.079 69.9431 256.716 68.1354 256.644 66.2474C256.589 64.8842 257.211 63.5804 257.952 62.4331C258.523 61.5526 259.192 60.6721 259.327 59.6264C259.522 58.1617 258.599 56.7647 257.503 55.7699C255.052 53.5431 251.771 52.6584 248.956 51.0285C247.593 50.2369 246.869 49.005 245.603 48.0779C244.176 47.028 242.648 46.1179 241.048 45.3516C237.356 43.5906 233.309 42.6381 229.228 42.4645C221.321 42.1258 213.506 45.0807 207.99 50.6052C200.7 57.9119 197.775 71.8438 202.351 79.9126C204.925 84.4592 207.296 88.1972 207.296 88.1972C207.588 88.6629 213.895 82.9987 214.281 82.2282C214.674 81.4493 214.818 80.573 215.06 79.7348C215.877 76.873 218.721 76.3904 221.16 75.4972C224.716 74.1976 226.498 71.0268 227.188 67.4539C227.586 65.3965 227.641 63.2925 227.7 61.2012C227.688 61.6711 230.562 62.6787 230.994 62.8141C235.236 64.1222 240.028 64.3508 244.333 63.1951C245.607 62.8522 246.962 62.4162 247.965 61.5484C248.24 61.3071 249.938 59.9566 249.481 59.491Z" fill="#1A0E08"/>
<path d="M222.976 97.1041C223.204 97.265 227.708 102.188 236.323 102.955" stroke="black" stroke-width="1.08373" stroke-miterlimit="10"/>
<path d="M231.815 70.0489C232.581 68.5461 234.114 67.4624 235.786 67.2465C237.458 67.0263 239.219 67.6783 240.345 68.9313" stroke="black" stroke-width="1.08373" stroke-miterlimit="10"/>
<path d="M247.741 70.2521C248.312 68.9821 249.514 68.1693 250.568 68.3513C251.618 68.5291 252.414 69.6975 252.478 71.0607" stroke="black" stroke-width="1.08373" stroke-miterlimit="10"/>
<path d="M243.914 79.3241C242.818 82.5796 239.355 84.311 236.175 83.1892C232.996 82.0631 231.307 78.5113 232.404 75.2559C233.5 71.9962 236.967 70.269 240.142 71.3909C243.321 72.5127 245.01 76.0645 243.914 79.3241Z" stroke="#62252B" stroke-width="1.08373" stroke-miterlimit="10"/>
<path d="M255.598 80.8439C255.005 84.239 252.821 86.6774 250.713 86.2922C248.604 85.907 247.368 82.8463 247.957 79.4511C248.549 76.0602 250.738 73.6218 252.842 74.0071C254.954 74.3923 256.186 77.453 255.598 80.8439Z" stroke="#62252B" stroke-width="1.08373" stroke-miterlimit="10"/>
<path d="M248.515 77.6562L244.235 76.8519" stroke="#62252B" stroke-width="1.08373" stroke-miterlimit="10"/>
<path d="M232.645 74.6421L219.746 75.6284" stroke="#62252B" stroke-width="1.08373" stroke-miterlimit="10"/>
<path d="M223.433 77.9525C223.369 74.8241 219.149 72.373 216.372 73.3678C209.696 75.7681 211.944 87.7231 218.15 88.8703C219.902 89.1963 222.421 88.502 223.044 86.5166" fill="#FFCBA2"/>
<path d="M215.885 78.7018L221.625 83.9004" stroke="black" stroke-width="1.08373" stroke-miterlimit="10"/>
<path d="M220.486 74.096C221.883 74.9384 223.018 76.2296 223.691 77.7536" stroke="black" stroke-width="1.08373" stroke-miterlimit="10"/>
<path d="M212.553 83.2315C213.413 85.7885 215.169 88.4936 217.951 88.955C219.881 89.2725 222.091 88.4301 222.883 86.4277" stroke="black" stroke-width="1.08373" stroke-miterlimit="10"/>
<path d="M197.821 65.6293C197.953 61.4256 198.41 57.1838 199.781 53.2045C201.149 49.2251 203.481 45.4913 206.847 42.964C208.709 41.5628 210.839 40.5637 212.994 39.679C214.81 38.9339 216.66 38.2608 218.577 37.8544C225.77 36.3219 233.216 38.5952 239.951 41.5416" fill="#FFC466"/>
<path d="M243.173 42.1174C241.399 40.4113 239.101 39.3022 236.713 38.6884C235.291 38.3243 233.818 38.1253 232.349 38.2015C231.587 38.2354 230.829 38.3497 230.08 38.4979C224.864 39.5223 220.169 42.2571 215.652 45.0511C209.62 48.7849 203.6 52.8023 199.176 58.3437C197.576 60.3461 196.162 62.6575 196.022 65.2144C195.942 66.6284 196.264 68.0423 196.725 69.3843C197.508 71.6449 199.35 74.8707 200.886 76.7037C214.154 64.2916 229.055 54.4745 246.259 48.6452C246.166 46.1814 244.947 43.8319 243.173 42.1174Z" fill="#FFC466"/>
<path d="M198.681 58.9872C198.681 58.9872 209.878 43.3747 230.663 38.1846" stroke="black" stroke-width="1.08373" stroke-miterlimit="10"/>
<path d="M204.497 60.7525C206.14 63.5888 207.82 66.4717 210.259 68.6561" stroke="black" stroke-width="1.08373" stroke-miterlimit="10"/>
<path d="M217.583 49.0135C219.284 52.5906 221.393 55.99 223.856 59.1227" stroke="black" stroke-width="1.08373" stroke-miterlimit="10"/>
<path d="M231.468 41.5543C234.33 44.505 236.777 47.8578 238.715 51.4857" stroke="black" stroke-width="1.08373" stroke-miterlimit="10"/>
<path d="M236.256 39.8652C238.715 42.8963 240.87 46.4946 242.479 50.0041" stroke="black" stroke-width="1.08373" stroke-miterlimit="10"/>
<path d="M197.986 62.5009C198.791 66.9967 201.424 70.8109 204.785 73.5202" stroke="black" stroke-width="1.08373" stroke-miterlimit="10"/>
<path d="M190.328 95.2372C196.67 97.6079 203.075 100.008 208.714 103.746C214.357 107.484 220.072 112.738 222.087 119.202" stroke="black" stroke-width="1.08373" stroke-miterlimit="10"/>
<path d="M226.481 117.234C229.368 115.849 231.713 113.369 232.932 110.405" stroke="black" stroke-width="1.08373" stroke-miterlimit="10"/>
<path d="M171.139 97.8831C174.068 114.723 196.285 111.502 206.635 116.726" stroke="black" stroke-width="1.08373" stroke-miterlimit="10"/>
<path d="M243.956 110.117C243.55 112.433 242.75 114.74 241.213 116.514C238.91 119.185 235.324 120.29 231.933 121.272" stroke="black" stroke-width="1.08373" stroke-miterlimit="10"/>
<path d="M235.003 117.234C236.543 127.825 238.101 139.696 237.61 150.385" stroke="black" stroke-width="1.08373" stroke-miterlimit="10"/>
<path d="M211.461 114.799C213.065 119.202 212.312 131.136 212.138 141.901" stroke="black" stroke-width="1.08373" stroke-miterlimit="10"/>
<path d="M318.983 423.202H77.7089C73.9539 423.202 70.9102 420.158 70.9102 416.403V253.035H325.778V416.403C325.778 420.158 322.738 423.202 318.983 423.202Z" fill="#DDBDDF"/>
<path d="M318.983 229.383H77.7089C73.0607 229.383 69.2845 233.163 69.2845 237.807V416.403C69.2845 421.047 73.0607 424.828 77.7089 424.828H318.983C323.627 424.828 327.404 421.047 327.404 416.403V237.807C327.404 233.163 323.627 229.383 318.983 229.383ZM318.983 231.009C322.738 231.009 325.778 234.052 325.778 237.807V416.403C325.778 420.158 322.738 423.202 318.983 423.202H77.7089C73.9539 423.202 70.9101 420.158 70.9101 416.403V237.807C70.9101 234.052 73.9539 231.009 77.7089 231.009" fill="white"/>
<path d="M90.3072 242.667C90.3072 245.275 88.1906 247.392 85.5786 247.392C82.9666 247.392 80.85 245.275 80.85 242.667C80.85 240.055 82.9666 237.939 85.5786 237.939C88.1906 237.939 90.3072 240.055 90.3072 242.667Z" stroke="white" stroke-width="1.6256" stroke-miterlimit="10"/>
<path d="M108.625 242.667C108.625 245.275 106.513 247.392 103.901 247.392C101.289 247.392 99.1721 245.275 99.1721 242.667C99.1721 240.055 101.289 237.939 103.901 237.939C106.513 237.939 108.625 240.055 108.625 242.667Z" stroke="white" stroke-width="1.6256" stroke-miterlimit="10"/>
<path d="M70.9102 253.035H325.778" stroke="white" stroke-width="1.6256" stroke-miterlimit="10"/>
<path d="M301.288 423.202C297.868 414.761 293.207 406.857 287.509 399.842C284.016 395.537 279.952 391.444 274.822 389.547C269.691 387.65 263.29 388.484 259.802 392.794C257.135 396.096 256.627 400.655 256.229 404.931C247.783 395.863 239.223 386.698 228.92 379.971C218.611 373.244 206.106 368.461 194.172 371.077C180.943 373.977 180.943 390.703 180.943 390.703C180.943 390.703 172.828 379.332 172.1 378.265C166.673 370.328 160.534 363.059 154.002 356.083C147.589 349.229 141.489 342.019 134.262 336.033C127.061 330.073 115.373 322.461 105.696 326.068C100.658 327.948 99.2737 332.317 100.391 337.354C101.437 342.066 101.987 346.79 103.452 351.43C95.3113 342.358 86.0446 334.001 75.3088 328.354C67.5618 324.282 51.3905 317.377 43.3514 324.049C41.0315 325.975 39.9774 329.163 39.9097 332.232C39.4864 351.003 53.0161 371.179 63.9127 385.047C75.0929 399.279 88.5803 411.882 102.55 423.202" fill="#FFDE96"/>
<path d="M252.317 338.387C250.874 346.367 251.301 354.618 251.339 362.767C251.382 370.925 252.033 376.259 249.087 383.658C246.424 390.343 240.862 392.612 237.958 399.157C236.48 402.493 230.875 423.185 230.875 423.185H155.581C155.581 423.185 153.473 390.656 165.081 362.898C176.693 335.136 191.205 330.158 191.205 330.158L234.038 319.109" fill="#7B5CA0"/>
<path d="M350.954 289.856C353.189 287.164 356.313 285.475 358.989 283.282C361.452 281.263 363.294 278.43 365.343 275.988C367.841 272.991 369.784 269.591 371.955 266.361C374.284 262.894 377.268 260.092 380.223 257.175C380.629 256.773 381.049 256.354 381.281 255.829C381.705 254.876 381.214 253.627 380.121 253.331C377.988 252.755 375.71 253.301 373.636 254.076C372.408 254.538 368.239 256.015 367.98 253.665C367.697 251.011 369.919 247.138 370.77 244.674C371.875 241.473 373.009 238.269 373.907 235.001C374.762 231.889 374.572 225.908 372.912 225.81C371.257 225.709 372.506 226.703 372.078 226.936C372.768 226.026 371.557 223.926 370.563 223.3C369.572 222.669 368.281 224.701 367.98 225.797C368.323 224.726 367.383 222.961 366.588 222.889C365.428 222.779 364.53 223.88 363.84 224.773C363.146 225.666 362.532 226.665 361.558 227.266C361.567 226.496 361.448 225.73 361.22 224.989C360.466 224.561 359.598 225.268 359.052 225.912C347.957 239.014 340.447 255.261 328.14 267.873" fill="#FD7768"/>
<path d="M368.247 251.866C368.285 255.092 368.2 258.318 367.997 261.535" stroke="black" stroke-width="1.08373" stroke-miterlimit="10"/>
<path d="M371.726 226.17C370.757 229.214 368.886 231.788 367.48 234.615C365.241 239.124 363.243 243.743 361.164 248.327" stroke="black" stroke-width="1.08373" stroke-miterlimit="10"/>
<path d="M367.904 225.569C367.227 226.995 366.456 228.371 365.593 229.692C364.67 231.11 363.645 232.456 362.659 233.824C359.831 237.744 357.283 241.859 355.039 246.134" stroke="black" stroke-width="1.08373" stroke-miterlimit="10"/>
<path d="M361.177 227.749C360.428 229.345 359.209 230.657 358.057 231.991C354.446 236.165 351.343 240.775 348.824 245.681" stroke="black" stroke-width="1.08373" stroke-miterlimit="10"/>
<path d="M212.431 323.422C225.901 317.788 234.728 311.865 248.063 305.858C260.09 300.444 276.964 296.003 288.821 290.225C305.217 282.228 320.592 273.401 334.071 261.302L358.557 287.083C358.557 287.083 323.954 322.381 311.872 329.264C282.759 345.846 272.159 348.949 241.895 364.778" fill="#7B5CA0"/>
<path d="M250.996 360.345C251.17 354.258 252.558 348.204 255.06 342.65" stroke="black" stroke-width="1.08373" stroke-miterlimit="10"/>
<path d="M325.896 268.084L350.183 295.338" stroke="black" stroke-width="1.08373" stroke-miterlimit="10"/>
<path d="M208.515 398.153C218.785 398.344 229.008 399.965 237.911 405.375C242.187 407.975 244.57 411.45 245.747 416.276C246.742 420.345 247.063 424.701 246.695 428.879C246.661 429.277 246.356 429.641 246.014 429.726C245.531 429.84 244.562 429.362 244.562 429.362C244.562 429.362 245.438 433.502 244.511 434.365C243.863 434.962 242.644 434.149 242.187 433.65C241.653 433.066 240.925 431.58 240.925 431.58C240.925 431.58 241.535 433.955 241.018 434.365C240.252 434.975 238.034 433.434 237.509 431.876C237.187 432.761 236.662 433.582 235.845 433.366C233.28 432.685 231.269 429.053 229.156 427.253C226.35 424.857 222.586 424.696 219.085 424.751C217.472 424.773 215.855 424.815 214.251 424.654C212.6 424.489 211.118 423.846 209.514 423.52C206.525 422.914 203.405 422.639 200.374 422.461" fill="#FD7768"/>
<path d="M227.476 419.544C230.295 420.717 233.284 422.021 234.867 424.438C235.346 425.162 235.672 425.954 235.959 426.754C236.573 428.434 237.043 430.157 237.509 431.876" stroke="black" stroke-width="1.08373" stroke-miterlimit="10"/>
<path d="M231.523 414.452C233.127 415.472 234.698 416.56 236.052 417.885C237.416 419.21 238.559 420.789 239.177 422.584C239.532 423.613 239.706 424.688 239.884 425.759C240.252 427.964 240.629 430.17 241.018 432.371" stroke="black" stroke-width="1.08373" stroke-miterlimit="10"/>
<path d="M237.026 410.951C239.693 412.94 241.784 415.701 242.978 418.808C244.032 421.555 244.388 424.514 244.731 427.44C244.841 428.367 244.951 429.294 245.061 430.221" stroke="black" stroke-width="1.08373" stroke-miterlimit="10"/>
<path d="M197.203 325.395C197.203 325.395 175.948 328.54 167.794 333.227C155.044 340.55 149.434 351.731 141.311 370.688C133.187 389.649 129.889 397.967 129.809 404.249C129.694 413.495 133.856 423.189 150.865 423.189H205.111L216.054 397.62L173.844 391.016L185.494 363.749" fill="#7B5CA0"/>
<path d="M216.054 397.62L173.844 391.016L185.494 363.749" stroke="black" stroke-width="1.08373" stroke-miterlimit="10"/>
<path d="M158.853 394.919C159.179 394.919 165.601 390.914 173.844 391.016" stroke="black" stroke-width="1.08373" stroke-miterlimit="10"/>
<path d="M204.408 395.8L192.83 423.185" stroke="black" stroke-width="1.08373" stroke-miterlimit="10"/>
<path d="M230.156 331.906C230.714 329.023 230.697 325.945 230.232 322.851" stroke="black" stroke-width="1.08373" stroke-miterlimit="10"/>
<path d="M185.177 331.178C187.518 337.024 192.699 341.875 198.359 344.356C205.484 347.476 215.149 348.056 221.956 343.882C225.131 341.939 227.311 339.386 228.687 336.469" stroke="black" stroke-width="1.08373" stroke-miterlimit="10"/>
<path d="M305.052 342.142C317.739 335.678 329.343 327.084 339.227 316.835" stroke="black" stroke-width="1.08373" stroke-miterlimit="10"/>
<path d="M328.72 336.008C334.871 331.241 340.641 325.984 345.95 320.298" stroke="black" stroke-width="1.08373" stroke-miterlimit="10"/>
<path d="M125.207 388.298C122.523 397.053 121.554 406.328 122.371 415.447" stroke="black" stroke-width="1.08373" stroke-miterlimit="10"/>
<path d="M116.732 389.602C115.038 394.517 114.069 399.677 113.87 404.872" stroke="black" stroke-width="1.08373" stroke-miterlimit="10"/>
<path d="M204.315 299.258L192.691 307.048L195.201 315.358L191.704 327.88C191.484 328.68 191.62 329.531 192.081 330.217C193.977 333.045 199.87 340.072 211.55 340.059C223.894 340.047 223.721 331.859 223.721 331.859L225.969 314.422" fill="#FD7768"/>
<path d="M227.696 298.221C224.5 292.265 222.675 288.582 219.318 284.476C216.473 281 211.753 276.085 207.3 275.107C201.568 273.846 196.175 277.982 191.293 281C183.276 285.957 183.415 296.63 186.125 304.576C188.203 310.684 192.504 313.017 197.927 316.738C205.018 321.602 220.432 323.808 227.044 318.474C231.993 314.486 231.083 304.529 227.696 298.221Z" fill="#FD7768"/>
<path d="M210.564 297.696C210.94 298.619 210.678 299.601 209.971 299.894C209.264 300.181 208.388 299.669 208.007 298.746C207.626 297.823 207.892 296.841 208.599 296.549C209.302 296.261 210.183 296.774 210.564 297.696Z" fill="black"/>
<path d="M221.943 291.427C222.324 292.35 222.061 293.332 221.354 293.624C220.647 293.912 219.767 293.4 219.386 292.477C219.009 291.554 219.276 290.572 219.979 290.28C220.686 289.992 221.566 290.504 221.943 291.427Z" fill="black"/>
<path d="M215.851 295.436C217.125 296.57 218.658 297.337 220.199 298.048C221.151 298.488 224.326 299.335 223.615 300.88C223.162 301.87 221.303 303.441 221.303 303.441" stroke="black" stroke-width="1.08373" stroke-miterlimit="10"/>
<path d="M192.593 324.701C192.593 324.701 194.045 320.988 194.397 319.659C194.989 317.42 193.105 317.301 192.453 315.328C192.115 314.3 192.394 313.038 192.623 312.022C193.114 309.833 194.24 307.378 193.228 305.172C192.593 303.775 191.222 302.891 190.121 301.82C189.024 300.744 188.127 299.106 188.787 297.718C189.566 296.075 191.865 295.952 193.27 294.805C194.68 293.658 195.01 291.634 194.913 289.822C194.82 288.006 194.401 286.182 194.718 284.391C194.773 284.069 194.862 283.735 195.091 283.498C195.781 282.787 196.928 283.477 197.792 283.963C199.345 284.836 201.221 284.73 202.846 284.069C203.672 283.735 204.425 283.125 204.726 282.287C204.908 281.771 204.904 281.208 204.997 280.666C205.086 280.124 205.297 279.557 205.767 279.269C206.106 279.061 206.529 279.036 206.927 279.053C208.18 279.112 209.416 279.548 210.424 280.297C211.266 280.928 211.741 281.381 212.803 281.343C213.828 281.305 214.81 280.966 215.83 281.263C217.062 281.618 217.883 282.749 218.607 283.807C220.605 286.715 222.607 289.623 224.606 292.532C225.605 291.088 226.616 289.615 227.108 287.93C227.603 286.249 227.489 284.285 226.379 282.926C225.317 281.614 223.496 281.026 222.591 279.599C221.591 278.02 221.748 275.738 221.638 273.952C221.524 272 220.923 270.032 219.805 268.385C218.73 266.789 216.918 265.553 214.996 265.697C213.887 265.781 212.828 266.315 211.715 266.281C211.029 266.26 210.365 266.023 209.734 265.752C206.809 264.499 204.269 262.458 201.352 261.18C198.435 259.897 194.778 259.512 192.263 261.463C190.972 262.462 190.112 263.982 188.711 264.816C184.66 267.216 178.852 262.691 174.991 265.388C172.502 267.128 172.421 270.899 170.326 273.097C167.646 275.907 162.765 275.167 159.726 277.584C156.656 280.022 156.644 284.882 158.485 288.341C159.395 290.051 160.72 291.812 160.327 293.709C160.081 294.89 159.213 295.821 158.473 296.774C157.41 298.137 156.551 299.711 156.339 301.426C156.127 303.136 156.652 305.003 157.973 306.117C158.794 306.807 160.043 307.132 160.665 308.03C161.364 309.038 161.559 310.845 161.698 312.03C161.817 313.076 161.834 314.143 162.147 315.142C163.011 317.881 166.029 319.511 168.895 319.511C170.22 319.511 171.672 319.261 172.76 320.015C173.662 320.637 174.03 321.763 174.576 322.711C176.354 325.797 180.676 327.093 183.86 325.497C185.058 324.896 186.163 323.93 187.5 323.909C188.834 323.888 191.332 324.917 192.593 324.701Z" fill="#2B1C16"/>
<path d="M211.283 321.28C214.869 322.174 221.655 322.36 226.803 319.109" stroke="black" stroke-width="1.08373" stroke-miterlimit="10"/>
<path d="M201.598 297.417C201.585 293.823 203.96 290.377 207.833 291.059" stroke="black" stroke-width="1.08373" stroke-miterlimit="10"/>
<path d="M214.954 288.463C214.831 287.439 215.601 286.241 216.761 285.653C217.921 285.064 219.361 285.153 220.169 285.818" stroke="black" stroke-width="1.08373" stroke-miterlimit="10"/>
<path d="M198.876 307.801C196.827 305.295 191.823 305.989 190.193 308.576C186.286 314.795 195.756 323.101 201.543 320.074C203.181 319.219 204.79 317.047 204.028 315.028" fill="#FD7768"/>
<path d="M193.207 313.233L201.199 313.804" stroke="black" stroke-width="1.08373" stroke-miterlimit="10"/>
<path d="M194.011 306.544C195.688 306.337 197.436 306.667 198.96 307.475" stroke="black" stroke-width="1.08373" stroke-miterlimit="10"/>
<path d="M193.381 319.054C195.713 320.586 198.875 321.67 201.437 320.269C203.21 319.299 204.472 317.195 203.837 315.062" stroke="black" stroke-width="1.08373" stroke-miterlimit="10"/>
<path d="M217.096 304.029C216.579 305.956 217.218 308.483 219.424 308.881C221.079 309.181 222.874 308.161 223.408 306.557" stroke="black" stroke-width="1.08373" stroke-miterlimit="10"/>
<path d="M659.157 194.42H417.595C413.844 194.42 410.8 191.38 410.8 187.625V68.2159H665.956V187.625C665.956 191.38 662.912 194.42 659.157 194.42Z" fill="#D4D9BC"/>
<path d="M659.157 48.4673H417.595C412.951 48.4673 409.175 52.2435 409.175 56.8874V187.625C409.175 192.269 412.951 196.046 417.595 196.046H659.157C663.801 196.046 667.581 192.269 667.581 187.625V56.8874C667.581 52.2435 663.801 48.4673 659.157 48.4673ZM659.157 50.0929C662.912 50.0929 665.956 53.1325 665.956 56.8874V187.625C665.956 191.376 662.912 194.42 659.157 194.42H417.595C413.844 194.42 410.8 191.376 410.8 187.625V56.8874C410.8 53.1325 413.844 50.0929 417.595 50.0929" fill="white"/>
<path d="M422.87 54.1696C419.83 54.1696 417.354 56.6419 417.354 59.6814C417.354 62.7252 419.83 65.1975 422.87 65.1975C425.909 65.1975 428.386 62.7252 428.386 59.6814C428.386 56.6419 425.909 54.1696 422.87 54.1696ZM422.87 55.7952C425.016 55.7952 426.76 57.5351 426.76 59.6814C426.76 61.832 425.016 63.5719 422.87 63.5719C420.723 63.5719 418.979 61.832 418.979 59.6814C418.979 57.5351 420.723 55.7952 422.87 55.7952Z" fill="white"/>
<path d="M437.944 54.1696C434.905 54.1696 432.433 56.6419 432.433 59.6814C432.433 62.7252 434.905 65.1975 437.944 65.1975C440.988 65.1975 443.46 62.7252 443.46 59.6814C443.46 56.6419 440.988 54.1696 437.944 54.1696ZM437.944 55.7952C440.095 55.7952 441.835 57.5351 441.835 59.6814C441.835 61.832 440.095 63.5719 437.944 63.5719C435.798 63.5719 434.058 61.832 434.058 59.6814C434.058 57.5351 435.798 55.7952 437.944 55.7952Z" fill="white"/>
<path d="M410.8 68.2116H665.956" stroke="white" stroke-width="1.6256" stroke-miterlimit="10"/>
<path d="M631.116 171.856C626.34 163.876 621.273 155.596 613.425 150.728C605.58 145.859 594.091 145.673 588.236 152.874C583.042 159.254 584.007 168.559 585.252 176.742C579.473 169.363 572.704 162.789 565.194 157.256C559.399 152.984 553.006 149.271 545.966 147.934C538.66 146.541 530.32 148.073 524.321 152.595C516.138 158.763 516.265 168.474 517.07 177.842C507.134 159.017 496.093 140.335 480.803 125.285C476.844 121.391 472.192 118.017 466.845 116.527C463.776 115.672 460.313 115.506 457.562 117.111C453.379 119.549 452.274 125.057 452.156 129.896C452.012 135.738 452.685 141.592 454.15 147.248C451.483 144.382 447.96 142.257 444.112 141.52C435.26 139.827 426.523 146.52 426.019 155.609C425.494 165.062 431.247 174.087 435.641 182.029C437.314 185.052 439.037 188.07 440.933 190.961C441.301 191.524 442.711 194.331 443.566 194.331H643.778C639.557 187.283 635.336 178.909 631.116 171.856Z" fill="#B9AF67"/>
<mask id="mask0_6_464" style="mask-type:luminance" maskUnits="userSpaceOnUse" x="508" y="55" width="142" height="140">
<path d="M508.209 55.7148H649.095V194.433H508.209V55.7148Z" fill="white"/>
</mask>
<g mask="url(#mask0_6_464)">
<mask id="mask1_6_464" style="mask-type:luminance" maskUnits="userSpaceOnUse" x="410" y="50" width="256" height="145">
<path d="M417.595 50.0887C413.844 50.0887 410.8 53.1325 410.8 56.8875V187.626C410.8 191.38 413.844 194.42 417.595 194.42H659.157C662.912 194.42 665.956 191.38 665.956 187.626V56.8875C665.956 53.1325 662.912 50.0887 659.157 50.0887H417.595Z" fill="white"/>
</mask>
<g mask="url(#mask1_6_464)">
<path d="M648.633 185.471L581.67 57.1372L562.641 56.0154L547.702 68.2116L509.259 96.1643L552.473 222.813" fill="white"/>
</g>
</g>
<mask id="mask2_6_464" style="mask-type:luminance" maskUnits="userSpaceOnUse" x="507" y="78" width="46" height="37">
<path d="M507.125 78.4732H552.642V114.236H507.125V78.4732Z" fill="white"/>
</mask>
<g mask="url(#mask2_6_464)">
<mask id="mask3_6_464" style="mask-type:luminance" maskUnits="userSpaceOnUse" x="410" y="50" width="256" height="145">
<path d="M417.595 50.0887C413.844 50.0887 410.8 53.1325 410.8 56.8875V187.626C410.8 191.38 413.844 194.42 417.595 194.42H659.157C662.912 194.42 665.956 191.38 665.956 187.626V56.8875C665.956 53.1325 662.912 50.0887 659.157 50.0887H417.595Z" fill="white"/>
</mask>
<g mask="url(#mask3_6_464)">
<path d="M522.827 94.3144C526.565 97.4301 531.768 98.6959 536.518 97.6503" stroke="black" stroke-width="1.08373" stroke-miterlimit="10"/>
</g>
</g>
<mask id="mask4_6_464" style="mask-type:luminance" maskUnits="userSpaceOnUse" x="525" y="57" width="49" height="56">
<path d="M525.549 57.8823H573.233V112.069H525.549V57.8823Z" fill="white"/>
</mask>
<g mask="url(#mask4_6_464)">
<mask id="mask5_6_464" style="mask-type:luminance" maskUnits="userSpaceOnUse" x="410" y="50" width="256" height="145">
<path d="M417.595 50.0887C413.844 50.0887 410.8 53.1325 410.8 56.8874V187.625C410.8 191.38 413.844 194.42 417.595 194.42H659.157C662.912 194.42 665.956 191.38 665.956 187.625V56.8874C665.956 53.1325 662.912 50.0887 659.157 50.0887H417.595Z" fill="white"/>
</mask>
<g mask="url(#mask5_6_464)">
<path d="M541.2 96.1643C545.882 94.5895 550.03 91.4865 552.867 87.4436C555.703 83.405 557.206 78.4436 557.092 73.5075" stroke="black" stroke-width="1.08373" stroke-miterlimit="10"/>
</g>
</g>
<mask id="mask6_6_464" style="mask-type:luminance" maskUnits="userSpaceOnUse" x="551" y="49" width="109" height="146">
<path d="M551.559 49.2124H659.932V194.433H551.559V49.2124Z" fill="white"/>
</mask>
<g mask="url(#mask6_6_464)">
<mask id="mask7_6_464" style="mask-type:luminance" maskUnits="userSpaceOnUse" x="410" y="50" width="256" height="145">
<path d="M417.595 50.0887C413.844 50.0887 410.801 53.1325 410.801 56.8874V187.625C410.801 191.38 413.844 194.42 417.595 194.42H659.158C662.912 194.42 665.956 191.38 665.956 187.625V56.8874C665.956 53.1325 662.912 50.0887 659.158 50.0887H417.595Z" fill="white"/>
</mask>
<g mask="url(#mask7_6_464)">
<path d="M630.362 137.757C618.776 115.663 584.011 46.0289 574.838 49.4579C564.31 53.3949 552.473 63.538 552.473 63.538C552.473 63.538 558.142 81.6905 558.578 83.4093C560.152 89.6831 561.774 95.9484 563.446 102.201C567.599 117.763 571.303 133.557 576.434 148.835C581.645 164.351 587.419 179.688 593.647 194.826C596.14 200.897 598.142 208.009 602.892 212.759C605.589 215.502 609.356 217.415 613.183 217.077C615.829 216.844 618.259 215.591 620.613 214.359C630.959 208.94 659.797 196.016 659.797 196.016C659.797 196.016 644.976 165.625 630.362 137.757Z" fill="#4E3E35"/>
</g>
</g>
<mask id="mask8_6_464" style="mask-type:luminance" maskUnits="userSpaceOnUse" x="500" y="86" width="73" height="109">
<path d="M500.623 86.0594H572.149V194.433H500.623V86.0594Z" fill="white"/>
</mask>
<g mask="url(#mask8_6_464)">
<mask id="mask9_6_464" style="mask-type:luminance" maskUnits="userSpaceOnUse" x="410" y="50" width="256" height="145">
<path d="M417.595 50.0887C413.844 50.0887 410.8 53.1325 410.8 56.8875V187.626C410.8 191.38 413.844 194.42 417.595 194.42H659.157C662.912 194.42 665.956 191.38 665.956 187.626V56.8875C665.956 53.1325 662.912 50.0887 659.157 50.0887H417.595Z" fill="white"/>
</mask>
<g mask="url(#mask9_6_464)">
<path d="M571.29 222.682C568.475 212.424 563.653 202.984 560.085 193.015C555.415 179.972 551.266 166.751 546.449 153.759C539.1 133.943 528.673 106.54 520.693 86.9695C520.693 86.9695 506.067 95.36 503.121 97.3962C500.17 99.4282 500.809 104.271 500.809 104.271C512.451 147.692 547.715 246.304 547.715 246.304C551.889 244.098 562.244 238.282 566.418 236.076C571.917 233.168 572.869 228.443 571.29 222.682Z" fill="#4E3E35"/>
</g>
</g>
<mask id="mask10_6_464" style="mask-type:luminance" maskUnits="userSpaceOnUse" x="489" y="79" width="72" height="91">
<path d="M489.786 79.5569H560.229V169.507H489.786V79.5569Z" fill="white"/>
</mask>
<g mask="url(#mask10_6_464)">
<mask id="mask11_6_464" style="mask-type:luminance" maskUnits="userSpaceOnUse" x="410" y="50" width="256" height="145">
<path d="M417.595 50.0887C413.844 50.0887 410.8 53.1325 410.8 56.8874V187.625C410.8 191.38 413.844 194.42 417.595 194.42H659.157C662.912 194.42 665.956 191.38 665.956 187.625V56.8874C665.956 53.1325 662.912 50.0887 659.157 50.0887H417.595Z" fill="white"/>
</mask>
<g mask="url(#mask11_6_464)">
<path d="M506.021 95.5716C519.546 116.345 530.074 133.261 544.167 153.653" stroke="black" stroke-width="1.08373" stroke-miterlimit="10"/>
</g>
</g>
<mask id="mask12_6_464" style="mask-type:luminance" maskUnits="userSpaceOnUse" x="554" y="49" width="38" height="105">
<path d="M554.81 49.2124H591.657V153.251H554.81V49.2124Z" fill="white"/>
</mask>
<g mask="url(#mask12_6_464)">
<mask id="mask13_6_464" style="mask-type:luminance" maskUnits="userSpaceOnUse" x="410" y="50" width="256" height="145">
<path d="M417.595 50.0887C413.844 50.0887 410.801 53.1325 410.801 56.8874V187.625C410.801 191.38 413.844 194.42 417.595 194.42H659.158C662.912 194.42 665.956 191.38 665.956 187.625V56.8874C665.956 53.1325 662.912 50.0887 659.158 50.0887H417.595Z" fill="white"/>
</mask>
<g mask="url(#mask13_6_464)">
<path d="M570.829 54.703C573.636 82.262 575.346 109.931 575.96 137.626" stroke="black" stroke-width="1.08373" stroke-miterlimit="10"/>
</g>
</g>
<path d="M430.46 201.811C427.64 203.966 424.736 206.011 421.764 207.946C418.894 209.808 415.825 211.396 413.01 213.322C412.316 213.8 411.664 214.338 411.016 214.875C408.658 216.831 406.275 218.808 404.399 221.238C404.15 221.56 403.904 221.894 403.565 222.127C403.231 222.36 402.778 222.466 402.405 222.292C402.024 222.11 401.83 221.678 401.72 221.268C401.262 219.566 401.728 217.75 402.422 216.129C402.871 215.087 403.413 214.092 403.883 213.059C404.277 212.208 404.793 211.303 404.801 210.354C397.211 212.217 390.577 216.709 383.427 219.867C381.967 220.514 378.987 220.375 378.678 219.122C378.267 217.462 388.838 211.921 393.905 207.954C390.374 209.118 386.628 210.325 383.33 212.065C381.044 213.271 378.606 214.224 376.044 214.617C374.605 214.837 371.358 214.994 372.387 212.589C372.692 211.883 373.339 211.387 373.97 210.943C378.855 207.484 384.431 205.376 389.498 202.184C384.168 203.382 379.008 206.21 373.585 205.554C373.056 205.49 372.493 205.372 372.133 204.986C371.578 204.394 371.472 203.678 371.993 203.056C372.51 202.434 373.289 202.099 374.034 201.79C379.516 199.508 385.256 196.943 390.738 194.661C387.932 194.97 385.239 195.902 382.496 196.562C379.753 197.222 376.84 197.608 374.131 196.829C373.255 196.579 372.239 195.834 372.577 194.992C372.742 194.585 373.17 194.361 373.568 194.17C380.299 190.966 387.03 187.757 393.761 184.548C395.649 183.646 397.537 182.749 399.459 181.919C403.633 180.124 407.663 178.067 411.846 176.276C416.236 174.396 420.655 172.572 425.092 170.802" fill="#EE6058"/>
<path d="M404.675 210.312C406.719 209.766 408.785 209.296 410.864 208.898" stroke="black" stroke-width="1.08373" stroke-miterlimit="10"/>
<path d="M393.622 207.899C396.496 206.527 399.447 205.304 402.448 204.241" stroke="black" stroke-width="1.08373" stroke-miterlimit="10"/>
<path d="M389.502 202.082C391.843 201.062 394.189 200.042 396.534 199.022" stroke="black" stroke-width="1.08373" stroke-miterlimit="10"/>
<path d="M388.101 195.605C389.828 194.979 391.509 194.234 393.135 193.383" stroke="black" stroke-width="1.08373" stroke-miterlimit="10"/>
<path d="M503.121 97.3962C498.108 100.732 493.151 104.462 489.972 107.92C484.871 113.466 454.89 149.805 454.89 149.805C454.89 149.805 424.182 168.326 406.58 178.553L425.824 209.906C425.824 209.906 461.507 197.079 479.702 184.294C496.242 172.678 527.911 134.603 527.911 134.603" fill="#4E3E35"/>
<path d="M515.668 149.809L506.021 119.812" stroke="black" stroke-width="1.08373" stroke-miterlimit="10"/>
<path d="M422.776 169.02L444.129 202.192" stroke="black" stroke-width="1.08373" stroke-miterlimit="10"/>
<path d="M420.156 200.668L437.868 192.468" stroke="black" stroke-width="1.08373" stroke-miterlimit="10"/>
<path d="M432.018 192.058C432.107 192.871 431.518 193.599 430.705 193.688C429.893 193.777 429.165 193.192 429.076 192.38C428.982 191.567 429.571 190.834 430.384 190.745C431.197 190.657 431.929 191.245 432.018 192.058Z" stroke="black" stroke-width="1.08373" stroke-miterlimit="10"/>
<path d="M424.834 194.335C424.923 195.148 424.338 195.876 423.526 195.965C422.713 196.054 421.98 195.47 421.891 194.657C421.803 193.844 422.391 193.112 423.204 193.023C424.017 192.934 424.745 193.523 424.834 194.335Z" stroke="black" stroke-width="1.08373" stroke-miterlimit="10"/>
<path d="M454.683 150.254C454.662 150.055 454.636 149.856 454.611 149.657C458.7 148.433 462.603 146.588 466.147 144.208" stroke="black" stroke-width="1.08373" stroke-miterlimit="10"/>
<path d="M469.131 114.905C474.935 107.925 482.039 102.028 489.972 97.6121" stroke="black" stroke-width="1.08373" stroke-miterlimit="10"/>
<path d="M473.805 98.9583C479.3 94.8689 485.303 91.4696 491.636 88.8661" stroke="black" stroke-width="1.08373" stroke-miterlimit="10"/>
<path d="M532.543 41.893L536.831 54.593L552.13 69.397C552.13 69.397 552.532 78.2023 543.875 87.4352C535.286 96.5961 525.977 90.4493 525.977 90.4493L514.868 74.1129" fill="#EE6058"/>
<path d="M496.724 74.9935C494.963 69.3589 492.745 57.1923 492.914 52.561C493.058 48.641 494.231 44.8013 496.817 41.7703C500.14 37.8629 507.959 39.2641 512.955 38.79C521.155 38.0068 526.277 47.7266 528.588 54.6904C530.366 60.0413 531.209 65.5489 529.397 71.0057C526.446 79.8787 516.985 88.8492 506.969 86.4235C501.529 85.1027 498.43 80.4629 496.724 74.9935Z" fill="#EE6058"/>
<path d="M540.285 40.3055C538.973 38.9001 537.161 37.7994 536.577 35.9621C536.255 34.9461 535.747 31.9066 535.421 30.8906C533.592 25.2306 528.843 23.3383 523.454 24.2654C522.878 18.8552 517.137 18.3345 512.422 18.2795C510.457 18.2541 508.459 18.0636 506.702 17.1238C504.844 16.129 503.159 14.7235 500.983 14.5161C499.048 14.334 497.05 14.969 495.442 16.0316C489.854 19.7061 488.258 26.8139 481.408 28.9602C479.245 29.6418 476.984 29.8407 475.117 31.2589C473.725 32.3172 472.687 33.9047 472.488 35.6446C472.209 38.1254 473.852 39.6367 475.545 41.148C477.522 42.909 478.673 45.1569 478.517 47.8366C478.419 49.458 477.983 51.0413 477.725 52.6457C476.984 57.2177 478.445 61.5357 482.272 64.3043C483.08 64.8885 484.172 65.4346 487.127 66.0738C489.21 66.5268 494.612 65.7436 494.612 65.7436C494.612 65.7436 493.278 57.9712 493.304 54.9444C493.329 52.0657 494.205 49.386 495.89 47.0831C497.325 45.1231 500.467 44.433 502.808 44.5346C506.317 44.6913 509.666 46.6259 513.15 46.2153C514.597 46.0459 515.973 45.4363 517.112 44.5262C521.798 47.5615 526.65 52.0276 527.725 57.4675C527.78 57.7426 528.47 60.9642 528.225 61.015C532.246 60.1726 537.309 59.8466 539.117 55.4566C539.739 53.9411 539.426 52.3494 539.896 50.8169C540.285 49.5469 541.424 48.6156 541.953 47.3964C542.978 45.0384 542.046 42.1809 540.285 40.3055Z" fill="#2B1C16"/>
<path d="M523.576 56.8028C523.784 53.3061 528.614 50.7449 531.679 51.9853C539.045 54.9571 536.005 68.237 529.012 69.2488C527.035 69.5367 524.245 68.6519 523.635 66.404" fill="#EE6058"/>
<path d="M531.988 57.9712L525.342 63.538" stroke="black" stroke-width="1.08373" stroke-miterlimit="10"/>
<path d="M527.043 52.6202C525.439 53.4965 524.118 54.8935 523.297 56.5699" stroke="black" stroke-width="1.08373" stroke-miterlimit="10"/>
<path d="M535.523 63.1867C534.447 66.0061 532.365 68.9609 529.232 69.3546C527.06 69.6256 524.622 68.5842 523.826 66.3109" stroke="black" stroke-width="1.08373" stroke-miterlimit="10"/>
<path d="M521.108 83.2865C521.108 83.2865 524.685 81.0175 527.043 76.0137" stroke="black" stroke-width="1.08373" stroke-miterlimit="10"/>
<path d="M502.693 61.5399C503.023 64.6599 503.366 67.7798 503.722 70.8956C503.773 71.3231 503.836 71.7846 504.132 72.1021C505.309 73.3467 508.006 72.7498 509.259 72.0047" stroke="black" stroke-width="1.08373" stroke-miterlimit="10"/>
<path d="M512.197 73.2831L506.804 76.4327C506.804 76.4327 508.891 80.429 510.978 79.6501C514.868 78.1938 512.197 73.2831 512.197 73.2831Z" fill="white"/>
<path d="M505.441 54.8004C505.991 53.6659 507.13 52.9039 508.328 52.5144C510.36 51.8583 512.68 52.18 514.458 53.3653" stroke="black" stroke-width="1.08373" stroke-miterlimit="10"/>
<path d="M492.842 59.3259C493.037 58.1363 493.719 57.2346 494.514 56.697C495.865 55.7826 497.596 55.791 499.095 56.7181" stroke="black" stroke-width="1.08373" stroke-miterlimit="10"/>
<path d="M512.574 59.4486C512.849 60.6128 512.341 61.7304 511.439 61.9421C510.533 62.158 509.581 61.3875 509.305 60.2233C509.026 59.0592 509.534 57.9416 510.44 57.7299C511.342 57.514 512.294 58.2845 512.574 59.4486Z" fill="black"/>
<path d="M500.141 63.1485C500.416 64.3127 499.908 65.4303 499.006 65.642C498.104 65.8579 497.148 65.0874 496.872 63.9232C496.597 62.7591 497.105 61.6415 498.007 61.4298C498.909 61.2139 499.865 61.9844 500.141 63.1485Z" fill="black"/>
<path d="M496.864 46.0459C494.544 47.2947 493.537 50.0168 491.97 52.1334C489.435 55.5497 485.04 57.4971 480.807 57.0822" stroke="#695046" stroke-width="1.08373" stroke-miterlimit="10"/>
<path d="M517.506 44.2171C519.605 42.2782 521.112 39.7086 521.781 36.9273" stroke="#695046" stroke-width="1.08373" stroke-miterlimit="10"/>
<path d="M714.343 331.068H532.716C528.965 331.068 525.921 328.024 525.921 324.273V195.233H721.142V324.273C721.142 328.024 718.098 331.068 714.343 331.068Z" fill="#FFD5BB"/>
<path d="M714.343 175.489H532.716C528.072 175.489 524.296 179.265 524.296 183.909V324.273C524.296 328.913 528.072 332.693 532.716 332.693H714.343C718.987 332.693 722.767 328.913 722.767 324.273V183.909C722.767 179.265 718.987 175.489 714.343 175.489ZM714.343 177.114C718.098 177.114 721.142 180.154 721.142 183.909V324.273C721.142 328.024 718.098 331.068 714.343 331.068H532.716C528.965 331.068 525.921 328.024 525.921 324.273V183.909C525.921 180.154 528.965 177.114 532.716 177.114" fill="white"/>
<path d="M541.881 186.703C541.881 188.853 540.141 190.593 537.991 190.593C535.844 190.593 534.104 188.853 534.104 186.703C534.104 184.556 535.844 182.816 537.991 182.816C540.141 182.816 541.881 184.556 541.881 186.703Z" stroke="white" stroke-width="1.6256" stroke-miterlimit="10"/>
<path d="M556.956 186.703C556.956 188.853 555.216 190.593 553.07 190.593C550.919 190.593 549.179 188.853 549.179 186.703C549.179 184.556 550.919 182.816 553.07 182.816C555.216 182.816 556.956 184.556 556.956 186.703Z" stroke="white" stroke-width="1.6256" stroke-miterlimit="10"/>
<path d="M525.921 195.233H721.142" stroke="white" stroke-width="1.6256" stroke-miterlimit="10"/>
<path d="M670.82 278.769C666.35 277.986 665.088 290.004 667.23 294.005C661.346 285.585 653.891 272.694 648.007 264.274C641.403 254.83 633.512 243.074 621.604 239.996C610.876 237.227 605.28 246.57 605.115 256.108C604.954 265.239 605.872 274.451 607.562 283.417C609.407 293.196 611.799 304.33 617.12 312.864C611.465 303.792 602.414 300.727 592.296 301.57C587.584 301.959 582.686 303.547 579.71 307.221C574.952 313.097 576.734 323.782 578.762 331.068H592.038C615.567 331.068 708.781 331.106 708.781 331.106C708.781 331.106 685.328 281.309 670.82 278.769Z" fill="#FF983F"/>
<path d="M535.624 261.836C516.227 262.124 497.004 258.022 478.449 252.366C459.894 246.71 426.091 234.294 426.091 234.294L416.435 263.44C416.435 263.44 466.409 295.097 532.911 300.503" fill="#FD7768"/>
<path d="M577.166 269.748C564.242 258.784 536.234 259.567 528.203 259.88C520.177 260.193 505.864 257.823 505.864 257.823L500.598 301.727C500.598 301.727 530.333 306.718 546.876 307.928" fill="#2B1C16"/>
<path d="M540.738 280.285C542.766 286.008 541.839 294.428 541.864 300.503C541.886 305.918 543.786 308.927 544.591 314.287C545.547 320.692 549.18 325.264 553.011 331.068H635.362L631.023 285.407L619.813 269.206L596.144 262.898L542.707 276.949" fill="#2B1C16"/>
<path d="M566.596 269.206C565.774 272.106 565.173 275.357 565.673 278.363C566.257 281.885 568.492 284.099 571.676 285.407" stroke="#74564C" stroke-width="1.08373" stroke-miterlimit="10"/>
<path d="M575.722 286.376C590.319 288.993 605.677 278.562 607.142 265.282" stroke="#74564C" stroke-width="1.08373" stroke-miterlimit="10"/>
<path d="M685.523 325.806C684.337 322.364 682.111 319.388 679.82 316.56C673.521 308.788 666.473 301.621 658.806 295.194L631.247 320.281L648.299 336.812L628.381 372.914L654.801 380.454C654.801 380.454 675.02 358.123 682.754 345.677C686.551 339.568 687.885 332.659 685.523 325.806Z" fill="#FD7768"/>
<path d="M633.651 364.824C633.651 364.824 622.099 381.453 620.93 384.454C619.885 387.151 619.309 390.521 618.898 393.395C617.764 401.316 622.01 409.456 625.21 413.3C625.57 413.736 626.103 414.016 626.641 414.113C627.826 414.337 628.3 413.719 628.275 412.318C628.923 413.199 629.57 414.079 630.218 414.96C630.485 415.324 630.768 415.701 631.149 415.891C631.886 416.255 632.805 415.811 633.372 415.091C633.935 414.371 634.223 413.436 634.498 412.53C635.184 413.52 636.251 414.562 637.279 413.952C638.308 413.347 639.193 411.15 638.964 409.884C639.299 410.997 640.772 411.027 641.576 410.218C642.381 409.414 642.673 408.148 642.914 406.967C643.519 403.983 644.091 400.905 645.551 398.293C646.525 396.553 647.85 395.114 649.006 393.522C652.769 388.341 654.632 381.741 655.847 375.234" fill="#FD7768"/>
<path d="M641.233 390.457C640.713 391.609 640.192 392.76 639.671 393.912C639.248 394.847 638.824 395.783 638.486 396.752C636.966 401.083 637.22 406.027 639.163 410.142" stroke="black" stroke-width="1.08373" stroke-miterlimit="10"/>
<path d="M632.538 390.025C631.475 395.258 631.048 401.553 631.801 405.49C632.288 408.038 633.401 410.464 634.765 412.648" stroke="black" stroke-width="1.08373" stroke-miterlimit="10"/>
<path d="M624.923 388.057C624.923 388.057 624.245 391.918 624.084 394.102C623.572 401.041 624.495 407.738 628.271 412.881" stroke="black" stroke-width="1.08373" stroke-miterlimit="10"/>
<path d="M423.729 263.931C421.65 263.728 419.572 263.529 417.489 263.326C415.63 263.144 413.755 262.962 411.973 262.39C410.788 262.009 409.661 261.463 408.54 260.917C403.921 258.669 401.559 257.996 397.144 255.393C394.608 253.898 392.008 252.489 389.303 251.32C386.658 250.177 383.906 249.559 381.459 248.01C381.247 247.874 381.027 247.726 380.93 247.493C380.854 247.315 380.862 247.112 380.888 246.922C381.455 242.93 389.591 243.844 392.758 244.729C393.71 244.996 394.701 245.313 395.67 245.118C395.738 243.848 395.179 242.629 394.557 241.52C392.737 238.252 390.07 235.648 387.661 232.804C385.438 230.175 383.182 227.55 381.129 224.781C379.207 222.186 377.23 216.539 378.737 215.849C380.248 215.159 379.44 216.535 379.927 216.598C378.953 215.997 379.325 213.601 380.024 212.661C380.722 211.717 382.661 213.144 383.334 214.058C382.632 213.182 382.873 211.197 383.588 210.841C384.63 210.325 385.862 211.019 386.827 211.607C387.796 212.192 388.728 212.903 389.854 213.106C389.57 212.395 389.401 211.633 389.35 210.862C389.9 210.193 390.963 210.54 391.704 210.943C406.783 219.155 419.648 231.597 435.675 238.917" fill="#FD7768"/>
<path d="M392.495 238.464C394.188 240.894 395.331 243.81 396.216 247.396" stroke="black" stroke-width="1.08373" stroke-miterlimit="10"/>
<path d="M379.977 215.756C381.98 218.245 384.651 219.968 386.988 222.102C390.7 225.497 394.231 229.083 397.821 232.609" stroke="black" stroke-width="1.08373" stroke-miterlimit="10"/>
<path d="M383.326 213.817C384.469 214.901 385.688 215.908 386.966 216.827C388.338 217.813 389.782 218.702 391.195 219.625C395.247 222.258 399.108 225.175 402.744 228.354" stroke="black" stroke-width="1.08373" stroke-miterlimit="10"/>
<path d="M390.383 213.423C391.657 214.638 393.27 215.426 394.828 216.251C399.696 218.842 404.26 222.017 408.379 225.687" stroke="black" stroke-width="1.08373" stroke-miterlimit="10"/>
<path d="M424.334 264.88C424.334 264.88 415.812 263.724 412.337 262.805" stroke="black" stroke-width="1.08373" stroke-miterlimit="10"/>
<path d="M612.887 267.398C618.754 267.966 624.622 268.512 630.206 270.62C637.262 273.287 643.397 278.291 649.171 283.409C655.203 288.756 661.359 296.037 667.23 301.616L637.135 327.952L615.825 307.183" fill="#2B1C16"/>
<path d="M648.299 336.812C648.299 336.812 652.752 331.114 657.265 327.952" stroke="black" stroke-width="1.08373" stroke-miterlimit="10"/>
<path d="M628.377 319.418L659.763 294.005" stroke="#74564C" stroke-width="1.08373" stroke-miterlimit="10"/>
<path d="M512.104 303.56L516.663 259.266" stroke="#74564C" stroke-width="1.08373" stroke-miterlimit="10"/>
<path d="M540.738 295.194C540.738 295.194 542.821 304.647 543.388 308.703" stroke="#74564C" stroke-width="1.08373" stroke-miterlimit="10"/>
<path d="M614.758 307.107C621.281 312.141 637.135 327.952 637.135 327.952" stroke="#74564C" stroke-width="1.08373" stroke-miterlimit="10"/>
<path d="M581.281 235.974L595.301 241.66L594.48 251.011L601.55 264.676C601.55 264.676 598.1 277.563 582.618 280.772C569.546 283.481 569.842 275.044 569.842 275.044L563.615 257.073" fill="#FD7768"/>
<path d="M551.652 243.175C553.722 236.165 554.844 231.86 557.494 226.771C559.738 222.462 563.653 216.222 568.149 214.202C573.94 211.603 580.561 214.791 586.399 216.912C595.979 220.392 598.185 231.724 597.071 240.737C596.216 247.663 592.178 251.079 587.254 256.218C580.82 262.932 564.987 268.66 556.808 264.473C550.687 261.341 549.459 250.601 551.652 243.175Z" fill="#FD7768"/>
<path d="M651.834 285.547C655.606 284.311 657.46 279.874 657.248 276.72C656.91 271.644 654.539 269.028 654.149 265.896C653.895 263.851 654.501 261.785 654.327 259.736C654.044 256.349 651.588 253.403 648.557 251.879C645.522 250.351 641.991 250.076 638.609 250.376C636.018 250.609 633.41 251.164 630.832 250.795C628.677 250.49 626.662 249.551 624.787 248.45C621.468 246.507 618.441 243.971 616.303 240.771C612.671 235.331 611.896 228.49 609.094 222.576C607.68 219.6 605.72 216.891 603.375 214.579C597.672 208.961 592.245 206.883 584.164 206.616C578.627 206.43 570.926 207.171 566.689 212.335C566.689 212.335 558.501 212.543 554.594 216.666C549.959 221.56 550.289 228.646 554.34 234.294C556.436 230.861 558.218 227.228 561.279 224.587C560.927 225.146 561.096 225.924 561.549 226.407C562.002 226.885 562.676 227.101 563.332 227.156C565.084 227.296 566.74 226.424 568.28 225.577C567.76 226.966 567.535 228.464 567.637 229.946C567.658 230.259 567.7 230.59 567.908 230.827C568.141 231.093 568.522 231.165 568.877 231.199C571.295 231.398 573.775 230.238 575.168 228.257C574.508 230.052 573.932 232.304 575.261 233.68C576.201 234.654 577.789 234.726 579.042 234.218C580.295 233.705 581.289 232.732 582.246 231.779C581.785 232.236 582.39 234.823 582.504 235.42C582.75 236.728 583.152 237.998 583.597 239.251C584.964 243.099 586.653 246.85 588.842 250.304C591.102 253.869 594.332 256.574 596.644 260.049C598.109 262.251 599.345 264.659 601.313 266.429C603.73 268.596 607.066 270.231 610.245 270.878C613.45 271.53 616.761 271.234 619.999 271.128C631.975 270.739 641.051 276.733 651.834 285.547Z" fill="#9D3A2E"/>
<path d="M623.902 208.009C623.212 206.307 622.205 204.749 620.909 203.556C616.244 199.259 606.067 199.538 602.592 205.376C600.678 208.585 601.605 212.712 603.057 216.158L605.915 222.428C609.903 224.595 614.945 224.684 619.009 222.669C622.404 220.984 624.796 217.873 624.969 214.016C625.054 212.052 624.681 209.939 623.902 208.009Z" fill="#9D3A2E"/>
<path d="M582.365 244.399C583.334 241.503 587.982 240.449 590.281 242.185C595.805 246.367 590.226 256.853 584.109 256.117C582.377 255.905 580.231 254.529 580.231 252.493" fill="#FD7768"/>
<path d="M589.18 247.294L582.318 250.469" stroke="black" stroke-width="1.08373" stroke-miterlimit="10"/>
<path d="M586.234 241.664C584.684 242.041 583.253 242.913 582.182 244.136" stroke="black" stroke-width="1.08373" stroke-miterlimit="10"/>
<path d="M590.967 252.489C589.421 254.622 586.996 256.633 584.269 256.252C582.377 255.985 580.561 254.554 580.409 252.459" stroke="black" stroke-width="1.08373" stroke-miterlimit="10"/>
<path d="M566.803 266.268C566.803 266.268 573.242 265.963 579.765 261.556" stroke="black" stroke-width="1.08373" stroke-miterlimit="10"/>
<path d="M560.038 239.645C559.022 241.418 557.959 243.247 556.321 244.471C555.932 244.763 555.504 245.021 555.187 245.394C554.729 245.923 554.53 246.668 554.67 247.358C554.81 248.044 555.28 248.657 555.906 248.971" stroke="black" stroke-width="1.08373" stroke-miterlimit="10"/>
<path d="M557.142 253.111C558.171 253.966 559.712 254.305 560.931 253.649C562.472 252.823 562.502 250.855 562.557 249.326" stroke="black" stroke-width="1.08373" stroke-miterlimit="10"/>
<path d="M567.548 235.839C568.674 235.602 569.855 235.551 570.973 235.818C572.095 236.08 573.153 236.677 573.868 237.579C574.779 238.722 575.058 240.225 575.312 241.664" stroke="black" stroke-width="1.08373" stroke-miterlimit="10"/>
<path d="M555.013 231.559C556.084 230.789 557.583 230.742 558.768 231.313C559.958 231.889 560.821 233.032 561.194 234.294" stroke="black" stroke-width="1.08373" stroke-miterlimit="10"/>
<path d="M569.44 242.316C569 243.235 568.107 243.721 567.442 243.404C566.782 243.086 566.6 242.087 567.04 241.164C567.48 240.246 568.378 239.759 569.038 240.077C569.699 240.394 569.881 241.397 569.44 242.316Z" fill="black"/>
<path d="M557.266 238.311C556.825 239.23 555.932 239.717 555.272 239.399C554.607 239.082 554.429 238.078 554.869 237.16C555.31 236.241 556.203 235.754 556.863 236.072C557.528 236.389 557.706 237.393 557.266 238.311Z" fill="black"/>
<path d="M683.528 363.999C690.132 357.285 694.814 348.7 696.88 339.509" stroke="black" stroke-width="1.08373" stroke-miterlimit="10"/>
<path d="M698.654 360.257C700.652 356.32 701.926 352.014 702.396 347.624" stroke="black" stroke-width="1.08373" stroke-miterlimit="10"/>
<path d="M569.385 149.758C569.385 149.758 558.104 154.931 550.53 158.365C546.246 160.308 539.066 165.621 536.615 169.663C533.495 174.807 532.682 181.165 533.038 186.415C533.275 189.89 534.863 193.827 537.191 197.612C538.723 200.105 540.357 202.717 541.788 202.379C543.215 202.04 542.698 198.539 542.698 198.535C542.703 198.751 544.392 202.065 544.781 202.328C545.302 202.683 545.92 202.992 546.458 202.709C547.186 202.324 547.685 201.909 548.037 201.164C548.333 200.529 548.358 199.877 548.418 199.17C548.477 198.535 548.422 196.994 548.388 196.346C548.706 197.045 549.006 199.229 549.607 199.111C550.204 198.996 551.182 198.497 551.715 197.841C552.757 196.571 553.311 194.979 553.845 193.425C553.849 193.802 553.853 194.187 553.997 194.539C554.137 194.886 554.446 195.195 554.823 195.224C555.293 195.258 557.223 193.848 557.507 193.467C558.722 191.816 559.175 189.607 560.055 187.757C560.787 186.212 561.507 185.115 562.561 183.773C563.526 182.545 565 181.03 566.405 180.293C569.271 178.791 571.028 178.38 573.962 176.996C576.43 175.827 578.847 174.384 580.557 172.203" fill="#EE6058"/>
<path d="M553.591 194.077C553.807 191.609 554.112 189.15 554.497 186.703C554.751 185.069 555.051 183.43 555.699 181.911C556.77 179.426 558.709 177.436 560.605 175.505" stroke="black" stroke-width="1.08373" stroke-miterlimit="10"/>
<path d="M548.655 196.888C547.698 192.773 547.8 188.498 547.905 184.277C547.935 183.113 547.969 181.932 548.248 180.801C548.731 178.846 549.916 177.148 551.076 175.501" stroke="black" stroke-width="1.08373" stroke-miterlimit="10"/>
<path d="M542.821 199.356C541.5 195.262 540.171 191.126 539.803 186.842C539.735 186.021 539.701 185.196 539.731 184.374C539.841 181.301 540.84 178.299 542.355 175.62" stroke="black" stroke-width="1.08373" stroke-miterlimit="10"/>
<path d="M578.982 88.5994L598.832 126.047L554.531 156.384L583.685 179.345C583.685 179.345 633.393 163.161 646.931 155.135C657.561 148.835 662.125 132.465 641.648 105.77C621.167 79.0744 607.028 63.2417 602.829 58.7882C593.795 49.2082 583.042 45.2289 573.017 50.275" fill="#4E3E35"/>
<path d="M578.982 88.5994L598.832 126.047L554.531 156.383" stroke="black" stroke-width="1.08373" stroke-miterlimit="10"/>
<path d="M580.125 169.02C580.125 169.837 579.46 170.502 578.648 170.502C577.826 170.502 577.166 169.837 577.166 169.02C577.166 168.203 577.826 167.543 578.648 167.543C579.46 167.543 580.125 168.203 580.125 169.02Z" stroke="black" stroke-width="1.08373" stroke-miterlimit="10"/>
<path d="M589.269 164.41C589.269 165.227 588.605 165.892 587.788 165.892C586.971 165.892 586.306 165.227 586.306 164.41C586.306 163.593 586.971 162.928 587.788 162.928C588.605 162.928 589.269 163.593 589.269 164.41Z" stroke="black" stroke-width="1.08373" stroke-miterlimit="10"/>
<path d="M570.173 168.698C570.333 168.825 589.269 159.283 589.269 159.283" stroke="black" stroke-width="1.08373" stroke-miterlimit="10"/>
<path d="M571.206 144.966C571.396 144.835 605.246 172.017 605.246 172.017" stroke="black" stroke-width="1.08373" stroke-miterlimit="10"/>
<path d="M597.749 126.42C601.906 124.799 606.084 123.05 610.525 122.381C615.27 121.666 620.096 121.916 624.872 122.161" stroke="black" stroke-width="1.08373" stroke-miterlimit="10"/>
<path d="M583.685 179.345L641.064 158.492" stroke="black" stroke-width="1.08373" stroke-miterlimit="10"/>
<path d="M593.718 40.9236C582.254 30.1497 570.545 19.4352 556.99 11.4469C531.891 -3.33594 496.864 -1.0457 479.554 9.70696C466.261 17.962 459.259 28.2447 450.725 40.9786C440.04 56.9171 428.838 74.0621 411.232 81.6948C402.651 85.4117 393.215 86.5292 384.037 88.3284C374.855 90.1233 365.47 92.8157 358.442 98.9837C351.411 105.152 347.402 115.621 351.199 124.168C354.184 130.882 361.533 135.103 368.878 135.314C376.222 135.522 383.381 132.114 388.668 127.013C402.156 113.995 408.438 79.7517 383.516 69.8923" stroke="#FF7258" stroke-width="1.6256" stroke-miterlimit="10"/>
<path d="M49.2821 273.075C50.8654 280.594 54.8743 288.599 60.293 294.775C67.35 302.814 81.7348 308.017 87.9197 296.325C90.7984 290.889 92.2335 282.097 85.3755 278.202C84.8887 277.927 84.3426 277.677 83.7541 277.673C82.4291 277.66 81.5486 278.811 81.1591 279.861C79.3261 284.793 82.2767 290.123 86.256 294.085C88.106 295.923 90.2608 297.637 92.9235 298.551C95.5863 299.466 98.8502 299.457 101.174 298.039C104.79 295.834 105.742 290.974 105.475 287.494" stroke="#8D97DE" stroke-width="1.6256" stroke-miterlimit="10"/>
<path d="M34.1266 75.0696C40.5062 67.0263 49.0957 59.7577 58.7519 56.0366C63.9716 54.0215 70.7957 53.2976 76.2906 54.3898C79.0296 54.9359 82.2173 55.7995 83.8937 58.2633C85.659 60.8668 83.5973 65.6843 87.0941 67.1618C87.9873 67.5385 89.0075 67.4454 89.9727 67.3015C92.9996 66.8443 95.9502 65.9341 98.9813 65.4896C102.012 65.0451 105.238 65.1044 107.969 66.4971C110.695 67.8899 112.769 70.8702 112.363 73.9097C112.202 75.0993 111.685 76.2761 111.906 77.453C112.274 79.4257 114.509 80.4587 116.507 80.6449C120.643 81.0344 124.58 80.9032 128.098 83.549C130.68 85.4921 132.162 88.9677 130.841 91.7574" stroke="#FFDE96" stroke-width="1.6256" stroke-miterlimit="10"/>
<path d="M304.438 67.42C306.046 63.8386 307.846 60.253 310.657 57.5098C313.463 54.7708 317.468 52.9843 321.32 53.7336C323.31 54.1189 325.19 55.156 327.217 55.1137C330.007 55.0544 332.395 52.9081 333.652 50.4147C334.905 47.9255 335.269 45.0976 335.781 42.3544C336.594 37.9729 337.911 33.4941 340.908 30.2005C343.905 26.9028 348.968 25.1332 352.973 27.089" stroke="#FFDE96" stroke-width="1.6256" stroke-miterlimit="10"/>
<path d="M115.792 430.344C115.792 437.083 110.331 442.548 103.591 442.548C96.8519 442.548 91.3909 437.083 91.3909 430.344C91.3909 423.608 96.8519 418.143 103.591 418.143C110.331 418.143 115.792 423.608 115.792 430.344Z" stroke="#8B9EF7" stroke-width="1.6256" stroke-miterlimit="10"/>
<path d="M321.142 14.4864C321.142 19.9516 316.71 24.3797 311.245 24.3797C305.78 24.3797 301.347 19.9516 301.347 14.4864C301.347 9.02117 305.78 4.58887 311.245 4.58887C316.71 4.58887 321.142 9.02117 321.142 14.4864Z" stroke="#8D97DE" stroke-width="1.6256" stroke-miterlimit="10"/>
<path d="M663.365 394.106L669.923 437.312L695.704 418.321" fill="#FFDE96"/>
<path d="M14.3486 346.701L31.79 326.928L2 327.994L14.3486 346.701Z" stroke="#8D97DE" stroke-width="1.6256" stroke-miterlimit="10"/>
<path d="M49.2821 388.607C49.2821 392.506 46.1198 395.668 42.2209 395.668C38.322 395.668 35.1597 392.506 35.1597 388.607C35.1597 384.708 38.322 381.546 42.2209 381.546C46.1198 381.546 49.2821 384.708 49.2821 388.607Z" fill="#FFDE96"/>
<path d="M57.3087 93.9122L40.333 130.95L92.204 123.427" fill="#FF7258"/>
<path d="M24.0219 186.195C24.0219 188.561 22.1042 190.479 19.7377 190.479C17.3713 190.479 15.4536 188.561 15.4536 186.195C15.4536 183.828 17.3713 181.91 19.7377 181.91C22.1042 181.91 24.0219 183.828 24.0219 186.195Z" fill="#8B9EF7"/>
<path d="M605.61 17.2592C605.61 19.6257 603.692 21.5476 601.326 21.5476C598.959 21.5476 597.042 19.6257 597.042 17.2592C597.042 14.8928 598.959 12.9751 601.326 12.9751C603.692 12.9751 605.61 14.8928 605.61 17.2592Z" fill="#FF7258"/>
<path d="M684.413 391.422C687.609 390.11 691.741 390.364 694.633 392.303C697.19 394.017 698.523 397.243 701.601 398.247C706.113 399.72 710.097 395.516 714.453 395.228C718.216 394.978 721.256 397.531 722.725 400.82C723.987 403.631 724.228 406.781 724.452 409.854" stroke="#8D97DE" stroke-width="1.6256" stroke-miterlimit="10"/>
<path d="M651.254 97.5571C652.82 93.6624 656.943 90.9531 661.138 91.0589C663.276 91.114 665.44 91.8209 667.51 91.2875C673.94 89.6196 673.407 78.4182 679.761 76.4793C684.168 75.1331 688.956 79.4003 693.269 77.7832C696.978 76.3904 697.888 71.7211 699.061 67.9365C702.236 57.7087 711.638 49.695 722.238 48.1795" stroke="#8D97DE" stroke-width="1.6256" stroke-miterlimit="10"/>
<path d="M602.219 320.819H407.299C402.656 320.819 398.879 324.595 398.879 329.239V449.58C398.879 454.224 402.656 458 407.299 458H602.219C606.867 458 610.643 454.224 610.643 449.58V329.239C610.643 324.595 606.867 320.819 602.219 320.819ZM602.219 322.444C605.978 322.444 609.018 325.484 609.018 329.239V449.58C609.018 453.335 605.978 456.374 602.219 456.374H407.299C403.545 456.374 400.505 453.335 400.505 449.58V329.239C400.505 325.484 403.545 322.444 407.299 322.444" fill="white"/>
<path d="M602.219 456.374H407.299C403.544 456.374 400.505 453.331 400.505 449.58V340.567H609.018V449.58C609.018 453.331 605.978 456.374 602.219 456.374Z" fill="#CDB4DF"/>
<path d="M416.465 332.037C416.465 334.184 414.721 335.923 412.574 335.923C410.428 335.923 408.684 334.184 408.684 332.037C408.684 329.887 410.428 328.147 412.574 328.147C414.721 328.147 416.465 329.887 416.465 332.037Z" stroke="white" stroke-width="1.6256" stroke-miterlimit="10"/>
<path d="M431.539 332.037C431.539 334.184 429.799 335.923 427.649 335.923C425.503 335.923 423.763 334.184 423.763 332.037C423.763 329.887 425.503 328.147 427.649 328.147C429.799 328.147 431.539 329.887 431.539 332.037Z" stroke="white" stroke-width="1.6256" stroke-miterlimit="10"/>
<path d="M400.505 340.567H609.018" stroke="white" stroke-width="1.6256" stroke-miterlimit="10"/>
<path d="M579.765 430.344C569.389 418.859 557.341 413.177 551.212 414.562C542.195 416.598 543.833 439.606 544.087 448.848C539.735 443.814 534.337 439.682 528.339 436.795C523.822 434.624 518.678 433.138 513.806 434.323C508.937 435.513 504.645 440.093 505.216 445.071C493.871 428.197 478.208 414.244 460.136 404.918C448.71 399.025 417.654 386.77 412.337 399.487C406.503 413.436 439.587 456.374 439.587 456.374H599.933C599.933 456.374 589.134 440.72 579.765 430.344Z" fill="#A59ED0"/>
<path d="M379.402 307.649C373.513 301.481 367.857 289.564 366.27 283.206C364.873 277.618 363.628 271.894 360.987 266.725C360.275 265.333 357.215 262.115 358.324 260.439C360.563 257.069 365.986 261.51 367.4 263.516C367.908 264.236 369.775 267.263 370.711 267.441C371.646 267.614 372.04 263.991 372.154 262.437C372.59 256.464 372.62 249.953 372.116 243.908C371.591 237.685 372.48 232.219 374.432 231.932C376.413 231.644 376.307 232.812 376.667 233.202C376.984 231.233 378.779 228.896 379.939 229.552C380.642 229.955 380.9 230.835 380.998 231.639C381.099 232.444 381.573 233.976 381.573 233.976C381.573 233.976 382.699 229.777 384.748 232.152C385.786 233.35 387.36 239.729 388.372 241.753C388.27 240.415 387.932 239.67 388.364 238.104C388.601 237.257 389.075 236.559 389.998 237.003C390.54 237.266 390.696 237.803 390.882 238.328C391.911 241.186 394.443 245.783 395.361 248.674C396.322 251.693 397.279 254.711 398.24 257.729C400.039 263.402 401.8 269.371 403.091 275.285C404.289 280.759 408.675 294.25 408.675 294.25" fill="#B74949"/>
<path d="M376.612 233.54C377.137 236.787 378.322 240.927 378.974 244.606C379.91 249.881 380.333 254.766 381.129 259.41" stroke="black" stroke-width="1.08373" stroke-miterlimit="10"/>
<path d="M381.857 234.074C382.479 236.855 383.563 240.703 384.291 243.87C385.502 249.153 386.391 253.894 387.432 258.538" stroke="black" stroke-width="1.08373" stroke-miterlimit="10"/>
<path d="M388.359 241.66C389.9 246.71 392.127 252.506 393.892 258.898" stroke="black" stroke-width="1.08373" stroke-miterlimit="10"/>
<path d="M371.299 267.119C370.905 269.79 370.706 272.622 368.928 274.955" stroke="black" stroke-width="1.08373" stroke-miterlimit="10"/>
<path d="M578.635 456.374C576.552 450.803 574.321 444.949 571.184 439.843C568.052 434.734 563.954 430.06 558.721 426.86C556.376 425.425 553.84 424.298 551.309 423.185L530.896 414.168L497.495 401.138C495.433 399.22 493.363 397.303 491.301 395.381C487.313 391.668 483.338 387.943 479.389 384.183C479.236 384.035 479.088 383.891 478.936 383.747C448.705 354.893 426.218 322.652 406.58 285.03L371.299 300.503C371.299 300.503 386.56 352.497 401.059 374.57C420.207 403.724 442.36 430.246 452.367 438.645C454.154 444.644 456.198 450.562 458.518 456.374" fill="#FFDED2"/>
<path d="M376.985 318.385L414.822 300.194" stroke="black" stroke-width="1.08373" stroke-miterlimit="10"/>
<path d="M378.868 297.18L391.627 324.866" stroke="black" stroke-width="1.08373" stroke-miterlimit="10"/>
<path d="M390.861 303.001C390.861 304.381 389.74 305.498 388.359 305.498C386.979 305.498 385.862 304.381 385.862 303.001C385.862 301.621 386.979 300.499 388.359 300.499C389.74 300.499 390.861 301.621 390.861 303.001Z" stroke="#E8A898" stroke-width="1.08373" stroke-miterlimit="10"/>
<path d="M527.226 455.638C528.965 453.369 530.705 451.104 532.445 448.839C534.325 446.392 536.204 443.941 538.325 441.702C544.506 435.17 552.854 430.521 561.799 429.548" stroke="#E8A898" stroke-width="1.08373" stroke-miterlimit="10"/>
<path d="M451.322 435.394C451.322 426.352 454.34 417.377 459.538 410.011C466.092 400.727 475.731 394.06 487.381 393.73" stroke="#E8A898" stroke-width="1.08373" stroke-miterlimit="10"/>
<path d="M452.211 438.29C450.543 433.324 449.586 427.749 446.944 423.181" stroke="black" stroke-width="1.08373" stroke-miterlimit="10"/>
<path d="M486.865 397.434L484.664 425.183C484.664 425.183 493.994 434.687 506.821 428.502C519.644 422.313 528.999 410.544 528.999 410.544L524.808 393.34" fill="#B74949"/>
<path d="M537.847 362.856C536.551 358.805 534.117 355.1 530.849 352.421C522.984 345.982 514.331 346.16 505.885 351.121C498.54 355.435 488.465 362.242 482.864 368.757C477.086 375.48 473.217 383.84 479.118 391.702C488.617 404.351 515.254 400.063 527.958 389.691C533.131 385.462 538.016 378.604 538.782 371.852C539.121 368.838 538.774 365.76 537.847 362.856Z" fill="#B74949"/>
<path d="M504.251 354.652C500.018 356.806 495.382 357.378 490.747 357.928C488.516 358.191 485.569 358.94 485.971 361.865C486.234 363.753 487.872 365.379 489.24 366.53" fill="#B74949"/>
<path d="M485.786 383.464C485.786 383.464 486.556 381.728 486.941 380.86C487.682 379.192 485.278 378.062 484.13 377.486C483.301 377.067 482.86 376.699 482.031 377.245C481.819 377.385 480.608 378.553 480.35 378.337C480.337 378.329 478.115 375.742 478.115 375.742C476.388 378.439 475.274 383.561 475.524 386.601C475.769 389.64 476.946 392.663 479.118 394.801C479.99 395.66 481.357 396.896 482.407 397.531C491.149 402.789 502.054 402.387 511.567 398.691C514.5 397.548 517.362 396.024 519.504 393.713C490.383 393.285 485.786 383.464 485.786 383.464Z" fill="#1A0E08"/>
<path d="M520.511 381.516C520.38 381.491 520.253 381.466 520.122 381.444C518.179 381.123 516.257 381.406 514.343 380.776C512.798 380.272 511.363 379.311 510.516 377.927C509.513 376.288 510.889 375.336 512.222 374.599C514.195 373.511 516.117 372.288 517.721 370.704C520.359 368.109 521.747 364.38 520.604 360.752C519.364 356.815 515.486 354.503 512.481 352.006C509.581 349.606 505.877 345.859 507.1 341.693C508.323 337.511 512.366 335.987 516.358 336.575C518.5 336.893 520.659 337.494 522.801 337.16C523.889 336.99 524.922 336.584 525.998 336.342C529.291 335.606 533.093 336.66 535.057 339.412C536.471 341.393 537.021 344.2 539.201 345.279C540.251 345.8 541.475 345.791 542.613 346.058C544.933 346.604 546.889 348.365 547.833 350.55C548.777 352.738 548.739 355.291 547.892 357.518C546.368 361.522 544.091 363.525 545.962 367.936C550.305 378.185 552.13 390.766 541.754 398.136C539.028 400.075 535.607 401.079 533.338 403.534C531.924 405.066 530.764 407.255 528.69 407.475C527.293 407.623 525.981 406.764 525.024 405.735C524.169 404.812 523.496 403.741 522.831 402.675C521.912 401.193 520.973 399.648 520.786 397.916C520.515 395.444 521.798 393.103 522.962 390.91C524.059 388.84 526.269 384.547 523.657 382.837C522.755 382.245 521.599 381.758 520.511 381.516Z" fill="#1A0E08"/>
<path d="M514.106 359.13C513.455 357.145 512.261 355.172 510.419 356.07C509.962 356.294 509.691 356.798 509.619 357.302C509.547 357.81 509.64 358.322 509.733 358.826C510.169 361.175 510.627 363.592 511.901 365.616C512.155 366.027 512.46 366.429 512.891 366.645C515.774 368.092 514.479 360.261 514.106 359.13Z" fill="#1A0E08"/>
<path d="M495.894 372.546L487.737 370.7C487.737 370.7 486.937 377.694 490.404 378.388C493.871 379.082 495.894 372.546 495.894 372.546Z" fill="white"/>
<path d="M487.246 364.337C487.923 365.218 488.842 365.908 489.875 366.31" stroke="black" stroke-width="1.08373" stroke-miterlimit="10"/>
<path d="M496.254 357.162C499.319 356.718 502.291 355.693 504.979 354.161" stroke="black" stroke-width="1.08373" stroke-miterlimit="10"/>
<path d="M518.615 381.8C521.621 379.535 527.082 381.707 528.203 385.077C530.9 393.179 517.908 399.94 512.21 394.919C510.597 393.501 509.378 390.605 510.8 388.535" fill="#B74949"/>
<path d="M523.517 389.5L514.331 387.934" stroke="black" stroke-width="1.08373" stroke-miterlimit="10"/>
<path d="M524.453 381.724C522.62 381.025 520.554 380.915 518.611 381.406" stroke="black" stroke-width="1.08373" stroke-miterlimit="10"/>
<path d="M511.003 388.624C509.979 390.377 510.284 392.536 511.401 394.166C513.433 397.129 518.344 397.146 521.311 395.876" stroke="black" stroke-width="1.08373" stroke-miterlimit="10"/>
<path d="M505.564 365.845C504.399 366.687 502.969 366.696 502.367 365.862C501.766 365.032 502.219 363.673 503.383 362.835C504.548 361.992 505.974 361.984 506.58 362.814C507.181 363.648 506.728 365.006 505.564 365.845Z" fill="black"/>
<path d="M533.529 409.638C504.251 413.11 486.327 426.517 486.327 426.517L491.42 449.775C517.603 424.878 543.079 419.261 543.333 418.994" fill="#FFDED2"/>
<path d="M485.481 411.654L474.453 418.732C474.453 418.732 472.556 438.514 476.176 449.038L486.327 426.513" fill="#FFDED2"/>
<path d="M486.327 426.517L491.42 449.775C517.603 424.878 543.079 419.261 543.333 418.994" stroke="black" stroke-width="1.08373" stroke-miterlimit="10"/>
<path d="M485.481 411.654L474.453 418.732C474.453 418.732 472.556 438.514 476.176 449.038L486.327 426.513" stroke="black" stroke-width="1.08373" stroke-miterlimit="10"/>
<path d="M376.828 348.755C379.783 359.274 384.168 369.388 389.82 378.739" stroke="black" stroke-width="1.08373" stroke-miterlimit="10"/>
<path d="M377.793 366.822C379.647 373.583 381.878 380.246 384.46 386.766" stroke="black" stroke-width="1.08373" stroke-miterlimit="10"/>
<path d="M558.552 381C558.713 385.822 556.838 390.559 553.972 394.437C551.102 398.314 547.283 401.396 543.253 404.042" stroke="black" stroke-width="1.08373" stroke-miterlimit="10"/>
<path d="M555.275 403.873C559.31 401.582 562.751 398.259 565.186 394.31" stroke="black" stroke-width="1.08373" stroke-miterlimit="10"/>
</svg>
