<svg width="238" height="44" viewBox="0 0 238 44" fill="none" xmlns="http://www.w3.org/2000/svg">
<path fill-rule="evenodd" clip-rule="evenodd" d="M41.4636 25.7789C42.8936 25.7775 44.0523 24.6238 44.0523 23.201V2.57789C44.0523 1.15416 42.8921 0 41.461 0H20.7305C19.2994 0 18.1392 1.15416 18.1392 2.57789V23.201C18.1392 24.6236 19.2976 25.7771 20.7273 25.7789C20.7284 25.7789 20.7294 25.7789 20.7305 25.7789L23.3218 25.7789C23.3233 25.7789 23.3248 25.7789 23.3263 25.7789H31.0912C31.0927 25.7789 31.0942 25.7789 31.0958 25.7789H41.461C41.4619 25.7789 41.4627 25.7789 41.4636 25.7789ZM28.5044 30.9346V41.2462C28.5044 42.6699 29.6646 43.8241 31.0958 43.8241H41.461C42.8921 43.8241 44.0523 42.6699 44.0523 41.2462V30.9346C44.0523 29.5109 42.8921 28.3567 41.461 28.3567H31.0958C29.6646 28.3567 28.5044 29.5109 28.5044 30.9346ZM25.9131 30.932C25.9117 29.5095 24.7521 28.3567 23.3218 28.3567H17.1888C16.2825 28.3567 15.5479 27.6259 15.5479 26.7243V23.2041C15.5479 23.2031 15.5479 23.202 15.5479 23.201V20.6231C15.5479 20.6223 15.5479 20.6216 15.5479 20.6208C15.5467 19.1981 14.387 18.0452 12.9566 18.0452H2.59131C1.16017 18.0452 0 19.1994 0 20.6231V41.2462C0 42.6699 1.16017 43.8241 2.59132 43.8241H23.3218C24.7521 43.8241 25.9117 42.6713 25.9131 41.2488C25.9131 41.2479 25.9131 41.247 25.9131 41.2462V30.9346C25.9131 30.9338 25.9131 30.9329 25.9131 30.932ZM12.9584 15.4673C14.388 15.4663 15.5467 14.3138 15.5479 12.8917C15.5479 12.8909 15.5479 12.8902 15.5479 12.8894V2.57789C15.5479 2.57728 15.5479 2.57666 15.5479 2.57605C15.5469 1.15316 14.3871 0 12.9566 0H2.59131C1.16017 0 0 1.15416 0 2.57789V12.8894C0 14.3125 1.15917 15.4663 2.58947 15.4673C2.59008 15.4673 2.5907 15.4673 2.59131 15.4673H12.9566C12.9572 15.4673 12.9578 15.4673 12.9584 15.4673Z" fill="white"/>
<path d="M66.0456 34.6344C64.2402 34.6344 62.5589 34.341 61.0018 33.7543C59.4672 33.145 58.1245 32.2987 56.9735 31.2155C55.8452 30.1097 54.965 28.8121 54.3332 27.3226C53.7013 25.8332 53.3853 24.2083 53.3853 22.4481C53.3853 20.6879 53.7013 19.063 54.3332 17.5736C54.965 16.0841 55.8565 14.7978 57.0074 13.7146C58.1583 12.6088 59.5011 11.7625 61.0356 11.1758C62.5702 10.5664 64.2515 10.2618 66.0794 10.2618C68.0202 10.2618 69.7917 10.6003 71.394 11.2773C72.9963 11.9318 74.3503 12.9134 75.4561 14.2223L72.6126 16.8966C71.7551 15.9713 70.796 15.283 69.7353 14.8317C68.6746 14.3577 67.5237 14.1208 66.2825 14.1208C65.0413 14.1208 63.9017 14.3239 62.8636 14.7301C61.8481 15.1363 60.9566 15.7118 60.1894 16.4565C59.4446 17.2012 58.8579 18.0813 58.4291 19.0969C58.0229 20.1124 57.8198 21.2295 57.8198 22.4481C57.8198 23.6667 58.0229 24.7838 58.4291 25.7993C58.8579 26.8149 59.4446 27.695 60.1894 28.4397C60.9566 29.1844 61.8481 29.7599 62.8636 30.1661C63.9017 30.5723 65.0413 30.7754 66.2825 30.7754C67.5237 30.7754 68.6746 30.5497 69.7353 30.0984C70.796 29.6245 71.7551 28.9136 72.6126 27.9658L75.4561 30.6739C74.3503 31.9602 72.9963 32.9419 71.394 33.6189C69.7917 34.2959 68.0089 34.6344 66.0456 34.6344ZM86.6964 34.5329C84.8459 34.5329 83.1985 34.1379 81.7542 33.3481C80.3099 32.5357 79.1703 31.4299 78.3353 30.0307C77.5003 28.6315 77.0828 27.0405 77.0828 25.2577C77.0828 23.4523 77.5003 21.8614 78.3353 20.4847C79.1703 19.0856 80.3099 17.9911 81.7542 17.2012C83.1985 16.4114 84.8459 16.0164 86.6964 16.0164C88.5695 16.0164 90.2282 16.4114 91.6725 17.2012C93.1394 17.9911 94.279 19.0743 95.0914 20.4509C95.9264 21.8275 96.3439 23.4298 96.3439 25.2577C96.3439 27.0405 95.9264 28.6315 95.0914 30.0307C94.279 31.4299 93.1394 32.5357 91.6725 33.3481C90.2282 34.1379 88.5695 34.5329 86.6964 34.5329ZM86.6964 30.9108C87.7345 30.9108 88.6598 30.6851 89.4722 30.2338C90.2846 29.7825 90.9165 29.128 91.3678 28.2704C91.8418 27.4129 92.0787 26.4086 92.0787 25.2577C92.0787 24.0842 91.8418 23.08 91.3678 22.245C90.9165 21.3874 90.2846 20.733 89.4722 20.2816C88.6598 19.8303 87.7458 19.6046 86.7303 19.6046C85.6922 19.6046 84.7669 19.8303 83.9545 20.2816C83.1647 20.733 82.5328 21.3874 82.0589 22.245C81.585 23.08 81.348 24.0842 81.348 25.2577C81.348 26.4086 81.585 27.4129 82.0589 28.2704C82.5328 29.128 83.1647 29.7825 83.9545 30.2338C84.7669 30.6851 85.6809 30.9108 86.6964 30.9108ZM123.206 16.0164C124.65 16.0164 125.925 16.2985 127.031 16.8627C128.159 17.4269 129.039 18.2957 129.671 19.4692C130.303 20.6202 130.619 22.1096 130.619 23.9375V34.2959H126.388V24.4792C126.388 22.8769 126.038 21.6808 125.338 20.891C124.639 20.1011 123.634 19.7062 122.326 19.7062C121.4 19.7062 120.577 19.9093 119.854 20.3155C119.155 20.7217 118.602 21.3197 118.196 22.1096C117.812 22.8994 117.62 23.9037 117.62 25.1223V34.2959H113.389V24.4792C113.389 22.8769 113.039 21.6808 112.34 20.891C111.64 20.1011 110.636 19.7062 109.327 19.7062C108.402 19.7062 107.578 19.9093 106.856 20.3155C106.156 20.7217 105.603 21.3197 105.197 22.1096C104.813 22.8994 104.622 23.9037 104.622 25.1223V34.2959H100.39V16.2195H104.418V21.0264L103.708 19.6046C104.317 18.4311 105.197 17.5397 106.348 16.9304C107.521 16.3211 108.853 16.0164 110.342 16.0164C112.035 16.0164 113.502 16.4339 114.743 17.2689C116.007 18.1039 116.842 19.3677 117.248 21.0602L115.589 20.4847C116.176 19.1307 117.146 18.0475 118.5 17.2351C119.854 16.4226 121.423 16.0164 123.206 16.0164ZM146.046 34.5329C144.579 34.5329 143.236 34.1943 142.018 33.5173C140.822 32.8403 139.863 31.8248 139.14 30.4708C138.441 29.0942 138.091 27.3565 138.091 25.2577C138.091 23.1364 138.43 21.3987 139.107 20.0447C139.806 18.6907 140.754 17.6864 141.95 17.032C143.146 16.3549 144.511 16.0164 146.046 16.0164C147.829 16.0164 149.397 16.4001 150.751 17.1674C152.128 17.9347 153.211 19.0066 154.001 20.3832C154.813 21.7598 155.22 23.3846 155.22 25.2577C155.22 27.1308 154.813 28.7669 154.001 30.1661C153.211 31.5427 152.128 32.6146 150.751 33.3819C149.397 34.1492 147.829 34.5329 146.046 34.5329ZM136.026 40.863V16.2195H140.054V20.4847L139.919 25.2916L140.257 30.0984V40.863H136.026ZM145.572 30.9108C146.588 30.9108 147.49 30.6851 148.28 30.2338C149.093 29.7825 149.736 29.128 150.21 28.2704C150.684 27.4129 150.92 26.4086 150.92 25.2577C150.92 24.0842 150.684 23.08 150.21 22.245C149.736 21.3874 149.093 20.733 148.28 20.2816C147.49 19.8303 146.588 19.6046 145.572 19.6046C144.557 19.6046 143.643 19.8303 142.83 20.2816C142.018 20.733 141.375 21.3874 140.901 22.245C140.427 23.08 140.19 24.0842 140.19 25.2577C140.19 26.4086 140.427 27.4129 140.901 28.2704C141.375 29.128 142.018 29.7825 142.83 30.2338C143.643 30.6851 144.557 30.9108 145.572 30.9108Z" fill="white"/>
<path d="M163.941 30.272C163.941 31.6807 163.646 32.7657 163.056 33.5272C162.485 34.2696 161.647 34.6693 160.543 34.7264L160.229 33.8412C160.895 33.8032 161.466 33.5176 161.942 32.9846C162.418 32.4516 162.656 31.5855 162.656 30.3862V14.8815L160.6 14.8243V13.6822H163.941V30.272ZM174.327 9.342C174.498 8.96128 174.774 8.77092 175.155 8.77092C175.402 8.77092 175.593 8.85658 175.726 9.0279C175.878 9.18019 175.954 9.36103 175.954 9.57043C175.954 9.72272 175.907 9.86548 175.812 9.99874L173.87 12.797H172.842L174.327 9.342ZM168.759 28.5302C168.759 29.4249 168.978 30.1863 169.416 30.8145C169.872 31.4427 170.463 31.9186 171.186 32.2422C171.909 32.5468 172.68 32.6991 173.499 32.6991C174.793 32.6991 175.897 32.3374 176.811 31.614C177.744 30.8907 178.21 29.8627 178.21 28.5302V13.6536H179.495V28.3589C179.495 30.2815 178.905 31.6807 177.725 32.5563C176.564 33.432 175.155 33.8698 173.499 33.8698C171.843 33.8698 170.424 33.432 169.244 32.5563C168.064 31.6807 167.474 30.2815 167.474 28.3589V13.6536H168.759V28.5302ZM196.553 31.3285V13.6822H197.81V33.6699H196.553L185.046 15.9951V33.6699H183.761V13.6822H185.046L196.553 31.3285ZM204.274 33.6699H202.989V14.8815L200.933 14.8243V13.6822H204.274V33.6699ZM207.509 19.1931C207.509 17.2324 208.042 15.7476 209.108 14.7387C210.193 13.7298 211.678 13.2253 213.562 13.2253C215.447 13.2253 216.903 13.7583 217.931 14.8243C218.978 15.8904 219.502 17.3561 219.502 19.2216V28.3874C219.502 30.3101 218.911 31.7283 217.731 32.642C216.57 33.5367 215.171 33.984 213.534 33.984C212.506 33.984 211.535 33.8032 210.621 33.4415C209.708 33.0608 208.956 32.4516 208.366 31.614C207.794 30.7765 207.509 29.7009 207.509 28.3874V19.1931ZM208.794 28.3874C208.794 29.8342 209.241 30.9287 210.136 31.6711C211.05 32.3945 212.173 32.7562 213.505 32.7562C214.876 32.7562 216.008 32.404 216.903 31.6997C217.798 30.9763 218.245 29.8627 218.245 28.3589V18.9932C218.245 17.5274 217.817 16.4043 216.96 15.6239C216.123 14.8434 214.971 14.4531 213.505 14.4531C212.039 14.4531 210.888 14.8434 210.05 15.6239C209.213 16.4043 208.794 17.5274 208.794 18.9932V28.3874ZM230.576 13.6822C232.403 13.6822 233.764 14.2342 234.659 15.3383C235.553 16.4424 236.001 17.9272 236.001 19.7927C236.001 21.1252 235.801 22.3531 235.401 23.4762C235.02 24.5803 234.249 25.3893 233.088 25.9033L236.029 33.6699H234.716L231.86 26.303C231.442 26.3411 231.099 26.3601 230.833 26.3601H224.893V33.6699H223.608V13.6822H230.576ZM230.718 25.1038C233.383 25.1038 234.716 23.3334 234.716 19.7927C234.716 18.1937 234.354 16.9849 233.631 16.1664C232.926 15.3288 231.927 14.91 230.633 14.91H224.893V25.1038H230.718Z" fill="white"/>
</svg>
