<svg width="450" height="454" viewBox="0 0 450 454" fill="none" xmlns="http://www.w3.org/2000/svg">
<g filter="url(#filter0_d_0_152)">
<g filter="url(#filter1_d_0_152)">
<rect x="40" y="10" width="350" height="354" rx="20" fill="white"/>
</g>
<path d="M145.838 213L139.862 196.08H143.078L147.686 209.952H146.726L151.694 196.08H153.998L158.606 209.952H157.718L162.542 196.08H165.566L159.542 213H156.974L152.51 199.992H153.038L148.406 213H145.838ZM172.156 213.24C170.124 213.24 168.532 212.68 167.38 211.56C166.228 210.44 165.652 208.904 165.652 206.952C165.652 205.688 165.9 204.584 166.396 203.64C166.892 202.696 167.58 201.96 168.46 201.432C169.356 200.904 170.396 200.64 171.58 200.64C172.748 200.64 173.724 200.888 174.508 201.384C175.292 201.88 175.884 202.576 176.284 203.472C176.7 204.368 176.908 205.416 176.908 206.616V207.408H168.076V205.824H174.772L174.364 206.16C174.364 205.04 174.124 204.184 173.644 203.592C173.18 203 172.5 202.704 171.604 202.704C170.612 202.704 169.844 203.056 169.3 203.76C168.772 204.464 168.508 205.448 168.508 206.712V207.024C168.508 208.336 168.828 209.32 169.468 209.976C170.124 210.616 171.044 210.936 172.228 210.936C172.916 210.936 173.556 210.848 174.148 210.672C174.756 210.48 175.332 210.176 175.876 209.76L176.764 211.776C176.188 212.24 175.5 212.6 174.7 212.856C173.9 213.112 173.052 213.24 172.156 213.24ZM186.384 213.24C185.36 213.24 184.464 212.992 183.696 212.496C182.928 211.984 182.416 211.296 182.16 210.432H182.424V213H179.448V195.336H182.448V203.352H182.16C182.432 202.52 182.952 201.864 183.72 201.384C184.488 200.888 185.376 200.64 186.384 200.64C187.456 200.64 188.392 200.896 189.192 201.408C189.992 201.92 190.616 202.648 191.064 203.592C191.512 204.52 191.736 205.64 191.736 206.952C191.736 208.264 191.512 209.392 191.064 210.336C190.616 211.264 189.984 211.984 189.168 212.496C188.368 212.992 187.44 213.24 186.384 213.24ZM185.544 210.936C186.488 210.936 187.248 210.608 187.824 209.952C188.416 209.296 188.712 208.296 188.712 206.952C188.712 205.608 188.416 204.608 187.824 203.952C187.248 203.28 186.488 202.944 185.544 202.944C184.6 202.944 183.84 203.272 183.264 203.928C182.688 204.584 182.4 205.584 182.4 206.928C182.4 208.272 182.688 209.28 183.264 209.952C183.84 210.608 184.6 210.936 185.544 210.936ZM201.157 213V196.08H212.557V198.504H204.133V203.184H212.005V205.632H204.133V210.552H212.557V213H201.157ZM219.393 213.24C218.353 213.24 217.393 213.12 216.513 212.88C215.649 212.624 214.921 212.272 214.329 211.824L215.169 209.808C215.777 210.224 216.449 210.544 217.185 210.768C217.921 210.992 218.665 211.104 219.417 211.104C220.217 211.104 220.809 210.968 221.193 210.696C221.593 210.424 221.793 210.056 221.793 209.592C221.793 209.224 221.665 208.936 221.409 208.728C221.169 208.504 220.777 208.336 220.233 208.224L217.833 207.768C216.809 207.544 216.025 207.16 215.481 206.616C214.953 206.072 214.689 205.36 214.689 204.48C214.689 203.728 214.889 203.064 215.289 202.488C215.705 201.912 216.289 201.464 217.041 201.144C217.809 200.808 218.705 200.64 219.729 200.64C220.625 200.64 221.465 200.76 222.249 201C223.049 201.24 223.721 201.6 224.265 202.08L223.401 204.024C222.905 203.624 222.337 203.312 221.697 203.088C221.057 202.864 220.433 202.752 219.825 202.752C218.993 202.752 218.385 202.904 218.001 203.208C217.617 203.496 217.425 203.872 217.425 204.336C217.425 204.688 217.537 204.984 217.761 205.224C218.001 205.448 218.369 205.616 218.865 205.728L221.265 206.184C222.337 206.392 223.145 206.76 223.689 207.288C224.249 207.8 224.529 208.504 224.529 209.4C224.529 210.2 224.313 210.888 223.881 211.464C223.449 212.04 222.849 212.48 222.081 212.784C221.313 213.088 220.417 213.24 219.393 213.24ZM232.164 213.24C230.724 213.24 229.636 212.864 228.9 212.112C228.164 211.36 227.796 210.232 227.796 208.728V203.136H225.468V200.88H227.796V197.784L230.796 197.016V200.88H234.036V203.136H230.796V208.536C230.796 209.368 230.956 209.952 231.276 210.288C231.596 210.624 232.036 210.792 232.596 210.792C232.9 210.792 233.156 210.768 233.364 210.72C233.588 210.672 233.804 210.608 234.012 210.528V212.904C233.74 213.016 233.436 213.096 233.1 213.144C232.78 213.208 232.468 213.24 232.164 213.24ZM240.753 213.24C239.697 213.24 238.769 212.992 237.969 212.496C237.169 211.984 236.545 211.256 236.097 210.312C235.649 209.368 235.425 208.24 235.425 206.928C235.425 205.616 235.649 204.496 236.097 203.568C236.545 202.624 237.169 201.904 237.969 201.408C238.769 200.896 239.697 200.64 240.753 200.64C241.777 200.64 242.673 200.896 243.441 201.408C244.225 201.904 244.745 202.576 245.001 203.424H244.737L245.001 200.88H247.881C247.833 201.376 247.785 201.88 247.737 202.392C247.705 202.904 247.689 203.408 247.689 203.904V213H244.713L244.689 210.504H244.977C244.721 211.336 244.201 212 243.417 212.496C242.633 212.992 241.745 213.24 240.753 213.24ZM241.593 210.936C242.537 210.936 243.297 210.608 243.873 209.952C244.449 209.28 244.737 208.272 244.737 206.928C244.737 205.584 244.449 204.584 243.873 203.928C243.297 203.272 242.537 202.944 241.593 202.944C240.649 202.944 239.889 203.272 239.313 203.928C238.737 204.584 238.449 205.584 238.449 206.928C238.449 208.272 238.729 209.28 239.289 209.952C239.865 210.608 240.633 210.936 241.593 210.936ZM240.753 199.704L243.225 194.832H246.177L242.769 199.704H240.753ZM256.14 213.24C254.7 213.24 253.612 212.864 252.876 212.112C252.14 211.36 251.772 210.232 251.772 208.728V203.136H249.444V200.88H251.772V197.784L254.772 197.016V200.88H258.012V203.136H254.772V208.536C254.772 209.368 254.932 209.952 255.252 210.288C255.572 210.624 256.012 210.792 256.572 210.792C256.876 210.792 257.132 210.768 257.34 210.72C257.564 210.672 257.78 210.608 257.988 210.528V212.904C257.716 213.016 257.412 213.096 257.076 213.144C256.756 213.208 256.444 213.24 256.14 213.24ZM260.05 213V200.88H263.05V213H260.05ZM259.882 198.6V195.672H263.218V198.6H259.882ZM271.876 213.24C270.628 213.24 269.532 212.984 268.588 212.472C267.66 211.96 266.94 211.232 266.428 210.288C265.916 209.328 265.66 208.192 265.66 206.88C265.66 205.568 265.916 204.448 266.428 203.52C266.956 202.592 267.684 201.88 268.612 201.384C269.54 200.888 270.628 200.64 271.876 200.64C272.676 200.64 273.452 200.768 274.204 201.024C274.972 201.264 275.596 201.616 276.076 202.08L275.164 204.168C274.732 203.768 274.244 203.472 273.7 203.28C273.172 203.072 272.652 202.968 272.14 202.968C271.068 202.968 270.228 203.304 269.62 203.976C269.028 204.648 268.732 205.624 268.732 206.904C268.732 208.184 269.028 209.168 269.62 209.856C270.228 210.544 271.068 210.888 272.14 210.888C272.636 210.888 273.148 210.792 273.676 210.6C274.22 210.408 274.716 210.112 275.164 209.712L276.076 211.776C275.58 212.24 274.948 212.6 274.18 212.856C273.428 213.112 272.66 213.24 271.876 213.24ZM283.639 213.24C282.391 213.24 281.311 212.984 280.399 212.472C279.487 211.96 278.775 211.232 278.263 210.288C277.767 209.344 277.519 208.224 277.519 206.928C277.519 205.632 277.767 204.52 278.263 203.592C278.775 202.648 279.487 201.92 280.399 201.408C281.311 200.896 282.391 200.64 283.639 200.64C284.887 200.64 285.967 200.896 286.879 201.408C287.807 201.92 288.519 202.648 289.015 203.592C289.527 204.52 289.783 205.632 289.783 206.928C289.783 208.224 289.527 209.344 289.015 210.288C288.519 211.232 287.807 211.96 286.879 212.472C285.967 212.984 284.887 213.24 283.639 213.24ZM283.639 210.936C284.583 210.936 285.335 210.608 285.895 209.952C286.455 209.28 286.735 208.272 286.735 206.928C286.735 205.584 286.455 204.584 285.895 203.928C285.335 203.272 284.583 202.944 283.639 202.944C282.695 202.944 281.943 203.272 281.383 203.928C280.823 204.584 280.543 205.584 280.543 206.928C280.543 208.272 280.823 209.28 281.383 209.952C281.943 210.608 282.695 210.936 283.639 210.936Z" fill="black"/>
<path d="M85.352 253.552C84.2213 253.552 83.2507 253.317 82.44 252.848C81.64 252.378 81.0267 251.712 80.6 250.848C80.1733 249.973 79.96 248.944 79.96 247.76C79.96 246.576 80.1733 245.552 80.6 244.688C81.0267 243.824 81.64 243.157 82.44 242.688C83.2507 242.218 84.2213 241.984 85.352 241.984C86.1627 241.984 86.8827 242.106 87.512 242.352C88.1413 242.586 88.6907 242.933 89.16 243.392L88.616 244.592C88.104 244.144 87.5973 243.824 87.096 243.632C86.6053 243.429 86.0347 243.328 85.384 243.328C84.136 243.328 83.1813 243.712 82.52 244.48C81.8587 245.248 81.528 246.341 81.528 247.76C81.528 249.178 81.8587 250.277 82.52 251.056C83.1813 251.824 84.136 252.208 85.384 252.208C86.0347 252.208 86.6053 252.112 87.096 251.92C87.5973 251.717 88.104 251.392 88.616 250.944L89.16 252.128C88.6907 252.586 88.136 252.938 87.496 253.184C86.8667 253.429 86.152 253.552 85.352 253.552ZM91.1691 253.408V241.632H92.6251V247.104H92.4171C92.6518 246.485 93.0305 246.016 93.5531 245.696C94.0758 245.376 94.6785 245.216 95.3611 245.216C96.3318 245.216 97.0465 245.477 97.5051 246C97.9745 246.522 98.2091 247.312 98.2091 248.368V253.408H96.7531V248.448C96.7531 247.733 96.6145 247.216 96.3371 246.896C96.0598 246.565 95.6065 246.4 94.9771 246.4C94.2731 246.4 93.7025 246.618 93.2651 247.056C92.8385 247.493 92.6251 248.074 92.6251 248.8V253.408H91.1691ZM103.983 253.552C103.194 253.552 102.511 253.386 101.935 253.056C101.359 252.714 100.911 252.234 100.591 251.616C100.271 250.986 100.111 250.24 100.111 249.376C100.111 248.522 100.271 247.786 100.591 247.168C100.911 246.538 101.359 246.058 101.935 245.728C102.511 245.386 103.194 245.216 103.983 245.216C104.772 245.216 105.455 245.386 106.031 245.728C106.618 246.058 107.066 246.538 107.375 247.168C107.695 247.786 107.855 248.522 107.855 249.376C107.855 250.24 107.695 250.986 107.375 251.616C107.066 252.234 106.618 252.714 106.031 253.056C105.455 253.386 104.772 253.552 103.983 253.552ZM103.983 252.4C104.708 252.4 105.29 252.144 105.727 251.632C106.164 251.12 106.383 250.368 106.383 249.376C106.383 248.384 106.164 247.637 105.727 247.136C105.29 246.634 104.708 246.384 103.983 246.384C103.247 246.384 102.66 246.634 102.223 247.136C101.796 247.637 101.583 248.384 101.583 249.376C101.583 250.368 101.796 251.12 102.223 251.632C102.66 252.144 103.247 252.4 103.983 252.4ZM113.202 253.552C112.412 253.552 111.73 253.386 111.154 253.056C110.578 252.714 110.13 252.234 109.81 251.616C109.49 250.986 109.33 250.24 109.33 249.376C109.33 248.522 109.49 247.786 109.81 247.168C110.13 246.538 110.578 246.058 111.154 245.728C111.73 245.386 112.412 245.216 113.202 245.216C113.991 245.216 114.674 245.386 115.25 245.728C115.836 246.058 116.284 246.538 116.594 247.168C116.914 247.786 117.074 248.522 117.074 249.376C117.074 250.24 116.914 250.986 116.594 251.616C116.284 252.234 115.836 252.714 115.25 253.056C114.674 253.386 113.991 253.552 113.202 253.552ZM113.202 252.4C113.927 252.4 114.508 252.144 114.946 251.632C115.383 251.12 115.602 250.368 115.602 249.376C115.602 248.384 115.383 247.637 114.946 247.136C114.508 246.634 113.927 246.384 113.202 246.384C112.466 246.384 111.879 246.634 111.442 247.136C111.015 247.637 110.802 248.384 110.802 249.376C110.802 250.368 111.015 251.12 111.442 251.632C111.879 252.144 112.466 252.4 113.202 252.4ZM121.749 253.552C121.098 253.552 120.49 253.466 119.924 253.296C119.37 253.125 118.911 252.88 118.549 252.56L119.013 251.552C119.407 251.85 119.839 252.08 120.309 252.24C120.789 252.389 121.279 252.464 121.781 252.464C122.389 252.464 122.847 252.352 123.157 252.128C123.477 251.904 123.637 251.605 123.637 251.232C123.637 250.933 123.535 250.693 123.333 250.512C123.13 250.33 122.81 250.197 122.373 250.112L120.853 249.808C120.17 249.648 119.653 249.392 119.301 249.04C118.959 248.677 118.789 248.213 118.789 247.648C118.789 247.178 118.917 246.762 119.173 246.4C119.429 246.026 119.791 245.738 120.261 245.536C120.741 245.322 121.301 245.216 121.941 245.216C122.527 245.216 123.071 245.301 123.573 245.472C124.085 245.642 124.506 245.893 124.837 246.224L124.357 247.2C124.026 246.912 123.653 246.693 123.237 246.544C122.831 246.384 122.415 246.304 121.989 246.304C121.37 246.304 120.911 246.426 120.613 246.672C120.314 246.906 120.164 247.216 120.164 247.6C120.164 247.888 120.255 248.128 120.437 248.32C120.618 248.501 120.911 248.64 121.317 248.736L122.837 249.04C123.551 249.189 124.09 249.434 124.453 249.776C124.815 250.117 124.997 250.57 124.997 251.136C124.997 251.637 124.858 252.069 124.581 252.432C124.314 252.794 123.935 253.072 123.445 253.264C122.965 253.456 122.399 253.552 121.749 253.552ZM130.646 253.552C129.366 253.552 128.352 253.184 127.606 252.448C126.87 251.712 126.502 250.698 126.502 249.408C126.502 248.554 126.662 247.818 126.982 247.2C127.312 246.57 127.766 246.085 128.342 245.744C128.918 245.392 129.59 245.216 130.358 245.216C131.094 245.216 131.718 245.376 132.23 245.696C132.742 246.005 133.131 246.448 133.398 247.024C133.664 247.6 133.798 248.282 133.798 249.072V249.552H127.638V248.688H132.806L132.534 248.896C132.534 248.064 132.347 247.418 131.974 246.96C131.611 246.501 131.072 246.272 130.358 246.272C129.579 246.272 128.976 246.544 128.55 247.088C128.123 247.621 127.91 248.352 127.91 249.28V249.424C127.91 250.405 128.15 251.146 128.63 251.648C129.12 252.149 129.798 252.4 130.662 252.4C131.142 252.4 131.59 252.33 132.006 252.192C132.422 252.053 132.822 251.824 133.206 251.504L133.686 252.512C133.323 252.842 132.87 253.098 132.326 253.28C131.792 253.461 131.232 253.552 130.646 253.552ZM139.647 257.04L139.311 255.856C139.812 255.738 140.228 255.6 140.559 255.44C140.89 255.29 141.167 255.093 141.391 254.848C141.615 254.602 141.812 254.293 141.983 253.92L142.383 252.96L142.351 253.568L138.847 245.36H140.415L143.215 252.256H142.799L145.599 245.36H147.103L143.407 254.032C143.183 254.554 142.938 254.992 142.671 255.344C142.415 255.696 142.132 255.984 141.823 256.208C141.524 256.432 141.194 256.608 140.831 256.736C140.468 256.864 140.074 256.965 139.647 257.04ZM151.733 253.552C150.944 253.552 150.261 253.386 149.685 253.056C149.109 252.714 148.661 252.234 148.341 251.616C148.021 250.986 147.861 250.24 147.861 249.376C147.861 248.522 148.021 247.786 148.341 247.168C148.661 246.538 149.109 246.058 149.685 245.728C150.261 245.386 150.944 245.216 151.733 245.216C152.522 245.216 153.205 245.386 153.781 245.728C154.368 246.058 154.816 246.538 155.125 247.168C155.445 247.786 155.605 248.522 155.605 249.376C155.605 250.24 155.445 250.986 155.125 251.616C154.816 252.234 154.368 252.714 153.781 253.056C153.205 253.386 152.522 253.552 151.733 253.552ZM151.733 252.4C152.458 252.4 153.04 252.144 153.477 251.632C153.914 251.12 154.133 250.368 154.133 249.376C154.133 248.384 153.914 247.637 153.477 247.136C153.04 246.634 152.458 246.384 151.733 246.384C150.997 246.384 150.41 246.634 149.973 247.136C149.546 247.637 149.333 248.384 149.333 249.376C149.333 250.368 149.546 251.12 149.973 251.632C150.41 252.144 150.997 252.4 151.733 252.4ZM160.424 253.552C159.453 253.552 158.722 253.29 158.232 252.768C157.752 252.245 157.512 251.44 157.512 250.352V245.36H158.968V250.32C158.968 251.024 159.112 251.541 159.4 251.872C159.688 252.202 160.136 252.368 160.744 252.368C161.405 252.368 161.938 252.149 162.344 251.712C162.76 251.264 162.968 250.672 162.968 249.936V245.36H164.424V253.408H163.016V251.632H163.224C163 252.24 162.642 252.714 162.152 253.056C161.661 253.386 161.085 253.552 160.424 253.552ZM166.856 253.408V247.328C166.856 247.008 166.846 246.682 166.824 246.352C166.814 246.01 166.787 245.68 166.744 245.36H168.152L168.328 247.376L168.088 247.392C168.195 246.901 168.376 246.496 168.632 246.176C168.899 245.845 169.214 245.605 169.576 245.456C169.95 245.296 170.334 245.216 170.728 245.216C170.899 245.216 171.043 245.221 171.16 245.232C171.278 245.242 171.395 245.269 171.512 245.312L171.48 246.608C171.32 246.544 171.171 246.506 171.032 246.496C170.904 246.474 170.744 246.464 170.552 246.464C170.083 246.464 169.678 246.57 169.336 246.784C169.006 246.997 168.75 247.28 168.568 247.632C168.398 247.984 168.312 248.362 168.312 248.768V253.408H166.856ZM180.085 253.552C179.381 253.552 178.762 253.386 178.229 253.056C177.696 252.725 177.28 252.245 176.981 251.616C176.682 250.986 176.533 250.24 176.533 249.376C176.533 248.512 176.682 247.77 176.981 247.152C177.28 246.522 177.696 246.042 178.229 245.712C178.762 245.381 179.381 245.216 180.085 245.216C180.789 245.216 181.402 245.392 181.925 245.744C182.458 246.096 182.816 246.581 182.997 247.2H182.805V241.632H184.261V253.408H182.821V251.536H182.997C182.826 252.165 182.474 252.661 181.941 253.024C181.418 253.376 180.8 253.552 180.085 253.552ZM180.421 252.4C181.146 252.4 181.728 252.144 182.165 251.632C182.613 251.12 182.837 250.368 182.837 249.376C182.837 248.384 182.613 247.637 182.165 247.136C181.728 246.634 181.146 246.384 180.421 246.384C179.696 246.384 179.109 246.634 178.661 247.136C178.224 247.637 178.005 248.384 178.005 249.376C178.005 250.368 178.224 251.12 178.661 251.632C179.109 252.144 179.696 252.4 180.421 252.4ZM190.092 253.552C189.303 253.552 188.62 253.386 188.044 253.056C187.468 252.714 187.02 252.234 186.7 251.616C186.38 250.986 186.22 250.24 186.22 249.376C186.22 248.522 186.38 247.786 186.7 247.168C187.02 246.538 187.468 246.058 188.044 245.728C188.62 245.386 189.303 245.216 190.092 245.216C190.882 245.216 191.564 245.386 192.14 245.728C192.727 246.058 193.175 246.538 193.484 247.168C193.804 247.786 193.964 248.522 193.964 249.376C193.964 250.24 193.804 250.986 193.484 251.616C193.175 252.234 192.727 252.714 192.14 253.056C191.564 253.386 190.882 253.552 190.092 253.552ZM190.092 252.4C190.818 252.4 191.399 252.144 191.836 251.632C192.274 251.12 192.492 250.368 192.492 249.376C192.492 248.384 192.274 247.637 191.836 247.136C191.399 246.634 190.818 246.384 190.092 246.384C189.356 246.384 188.77 246.634 188.332 247.136C187.906 247.637 187.692 248.384 187.692 249.376C187.692 250.368 187.906 251.12 188.332 251.632C188.77 252.144 189.356 252.4 190.092 252.4ZM199.375 253.552C198.575 253.552 197.882 253.386 197.295 253.056C196.708 252.714 196.25 252.229 195.919 251.6C195.599 250.96 195.439 250.202 195.439 249.328C195.439 248.464 195.604 247.728 195.935 247.12C196.266 246.501 196.724 246.032 197.311 245.712C197.898 245.381 198.586 245.216 199.375 245.216C199.898 245.216 200.404 245.306 200.895 245.488C201.386 245.658 201.786 245.909 202.095 246.24L201.599 247.264C201.29 246.965 200.948 246.746 200.575 246.608C200.202 246.458 199.834 246.384 199.471 246.384C198.682 246.384 198.063 246.64 197.615 247.152C197.167 247.653 196.943 248.384 196.943 249.344C196.943 250.314 197.167 251.061 197.615 251.584C198.063 252.106 198.682 252.368 199.471 252.368C199.823 252.368 200.186 252.298 200.559 252.16C200.932 252.021 201.279 251.802 201.599 251.504L202.095 252.512C201.775 252.853 201.364 253.114 200.863 253.296C200.372 253.466 199.876 253.552 199.375 253.552ZM206.896 253.552C206.053 253.552 205.413 253.322 204.976 252.864C204.549 252.394 204.336 251.69 204.336 250.752V246.48H202.768V245.36H204.336V243.2L205.792 242.8V245.36H208.064V246.48H205.792V250.624C205.792 251.242 205.899 251.685 206.112 251.952C206.336 252.208 206.656 252.336 207.072 252.336C207.285 252.336 207.467 252.32 207.616 252.288C207.776 252.245 207.92 252.197 208.048 252.144V253.344C207.888 253.408 207.701 253.456 207.488 253.488C207.285 253.53 207.088 253.552 206.896 253.552ZM212.905 253.552C212.116 253.552 211.433 253.386 210.857 253.056C210.281 252.714 209.833 252.234 209.513 251.616C209.193 250.986 209.033 250.24 209.033 249.376C209.033 248.522 209.193 247.786 209.513 247.168C209.833 246.538 210.281 246.058 210.857 245.728C211.433 245.386 212.116 245.216 212.905 245.216C213.694 245.216 214.377 245.386 214.953 245.728C215.54 246.058 215.988 246.538 216.297 247.168C216.617 247.786 216.777 248.522 216.777 249.376C216.777 250.24 216.617 250.986 216.297 251.616C215.988 252.234 215.54 252.714 214.953 253.056C214.377 253.386 213.694 253.552 212.905 253.552ZM212.905 252.4C213.63 252.4 214.212 252.144 214.649 251.632C215.086 251.12 215.305 250.368 215.305 249.376C215.305 248.384 215.086 247.637 214.649 247.136C214.212 246.634 213.63 246.384 212.905 246.384C212.169 246.384 211.582 246.634 211.145 247.136C210.718 247.637 210.505 248.384 210.505 249.376C210.505 250.368 210.718 251.12 211.145 251.632C211.582 252.144 212.169 252.4 212.905 252.4ZM218.716 253.408V247.328C218.716 247.008 218.705 246.682 218.684 246.352C218.673 246.01 218.646 245.68 218.604 245.36H220.012L220.188 247.376L219.948 247.392C220.054 246.901 220.236 246.496 220.492 246.176C220.758 245.845 221.073 245.605 221.436 245.456C221.809 245.296 222.193 245.216 222.588 245.216C222.758 245.216 222.902 245.221 223.02 245.232C223.137 245.242 223.254 245.269 223.372 245.312L223.34 246.608C223.18 246.544 223.03 246.506 222.892 246.496C222.764 246.474 222.604 246.464 222.412 246.464C221.942 246.464 221.537 246.57 221.196 246.784C220.865 246.997 220.609 247.28 220.428 247.632C220.257 247.984 220.172 248.362 220.172 248.768V253.408H218.716ZM229.32 253.408V246.48H227.752V245.36H229.72L229.32 245.728V244.432C229.32 243.493 229.555 242.784 230.024 242.304C230.494 241.813 231.176 241.568 232.072 241.568C232.286 241.568 232.51 241.584 232.744 241.616C232.99 241.648 233.192 241.701 233.352 241.776V242.96C233.224 242.906 233.064 242.864 232.872 242.832C232.68 242.8 232.494 242.784 232.312 242.784C231.992 242.784 231.715 242.848 231.48 242.976C231.246 243.104 231.07 243.296 230.952 243.552C230.835 243.797 230.776 244.122 230.776 244.528V245.664L230.552 245.36H233V246.48H230.776V253.408H229.32ZM234.372 253.408V247.328C234.372 247.008 234.361 246.682 234.34 246.352C234.329 246.01 234.303 245.68 234.26 245.36H235.668L235.844 247.376L235.604 247.392C235.711 246.901 235.892 246.496 236.148 246.176C236.415 245.845 236.729 245.605 237.092 245.456C237.465 245.296 237.849 245.216 238.244 245.216C238.415 245.216 238.559 245.221 238.676 245.232C238.793 245.242 238.911 245.269 239.028 245.312L238.996 246.608C238.836 246.544 238.687 246.506 238.548 246.496C238.42 246.474 238.26 246.464 238.068 246.464C237.599 246.464 237.193 246.57 236.852 246.784C236.521 246.997 236.265 247.28 236.084 247.632C235.913 247.984 235.828 248.362 235.828 248.768V253.408H234.372ZM243.592 253.552C242.803 253.552 242.12 253.386 241.544 253.056C240.968 252.714 240.52 252.234 240.2 251.616C239.88 250.986 239.72 250.24 239.72 249.376C239.72 248.522 239.88 247.786 240.2 247.168C240.52 246.538 240.968 246.058 241.544 245.728C242.12 245.386 242.803 245.216 243.592 245.216C244.382 245.216 245.064 245.386 245.64 245.728C246.227 246.058 246.675 246.538 246.984 247.168C247.304 247.786 247.464 248.522 247.464 249.376C247.464 250.24 247.304 250.986 246.984 251.616C246.675 252.234 246.227 252.714 245.64 253.056C245.064 253.386 244.382 253.552 243.592 253.552ZM243.592 252.4C244.318 252.4 244.899 252.144 245.336 251.632C245.774 251.12 245.992 250.368 245.992 249.376C245.992 248.384 245.774 247.637 245.336 247.136C244.899 246.634 244.318 246.384 243.592 246.384C242.856 246.384 242.27 246.634 241.832 247.136C241.406 247.637 241.192 248.384 241.192 249.376C241.192 250.368 241.406 251.12 241.832 251.632C242.27 252.144 242.856 252.4 243.592 252.4ZM249.419 253.408V247.264C249.419 246.954 249.408 246.64 249.387 246.32C249.366 246 249.334 245.68 249.291 245.36H250.699L250.859 247.088H250.667C250.88 246.49 251.222 246.032 251.691 245.712C252.16 245.381 252.72 245.216 253.371 245.216C254.032 245.216 254.576 245.376 255.003 245.696C255.43 246.005 255.718 246.496 255.867 247.168H255.627C255.83 246.57 256.187 246.096 256.699 245.744C257.211 245.392 257.808 245.216 258.491 245.216C259.376 245.216 260.043 245.477 260.491 246C260.939 246.512 261.163 247.312 261.163 248.4V253.408H259.707V248.48C259.707 247.744 259.579 247.216 259.323 246.896C259.067 246.565 258.662 246.4 258.107 246.4C257.456 246.4 256.944 246.624 256.571 247.072C256.198 247.509 256.011 248.106 256.011 248.864V253.408H254.555V248.48C254.555 247.744 254.427 247.216 254.171 246.896C253.926 246.565 253.52 246.4 252.955 246.4C252.304 246.4 251.792 246.624 251.419 247.072C251.056 247.509 250.875 248.106 250.875 248.864V253.408H249.419ZM270.771 253.552C269.928 253.552 269.288 253.322 268.851 252.864C268.424 252.394 268.211 251.69 268.211 250.752V246.48H266.643V245.36H268.211V243.2L269.667 242.8V245.36H271.939V246.48H269.667V250.624C269.667 251.242 269.774 251.685 269.987 251.952C270.211 252.208 270.531 252.336 270.947 252.336C271.16 252.336 271.342 252.32 271.491 252.288C271.651 252.245 271.795 252.197 271.923 252.144V253.344C271.763 253.408 271.576 253.456 271.363 253.488C271.16 253.53 270.963 253.552 270.771 253.552ZM273.466 253.408V241.632H274.922V247.104H274.714C274.949 246.485 275.327 246.016 275.85 245.696C276.373 245.376 276.975 245.216 277.658 245.216C278.629 245.216 279.343 245.477 279.802 246C280.271 246.522 280.506 247.312 280.506 248.368V253.408H279.05V248.448C279.05 247.733 278.911 247.216 278.634 246.896C278.357 246.565 277.903 246.4 277.274 246.4C276.57 246.4 275.999 246.618 275.562 247.056C275.135 247.493 274.922 248.074 274.922 248.8V253.408H273.466ZM286.28 253.552C285.491 253.552 284.808 253.386 284.232 253.056C283.656 252.714 283.208 252.234 282.888 251.616C282.568 250.986 282.408 250.24 282.408 249.376C282.408 248.522 282.568 247.786 282.888 247.168C283.208 246.538 283.656 246.058 284.232 245.728C284.808 245.386 285.491 245.216 286.28 245.216C287.069 245.216 287.752 245.386 288.328 245.728C288.915 246.058 289.363 246.538 289.672 247.168C289.992 247.786 290.152 248.522 290.152 249.376C290.152 250.24 289.992 250.986 289.672 251.616C289.363 252.234 288.915 252.714 288.328 253.056C287.752 253.386 287.069 253.552 286.28 253.552ZM286.28 252.4C287.005 252.4 287.587 252.144 288.024 251.632C288.461 251.12 288.68 250.368 288.68 249.376C288.68 248.384 288.461 247.637 288.024 247.136C287.587 246.634 287.005 246.384 286.28 246.384C285.544 246.384 284.957 246.634 284.52 247.136C284.093 247.637 283.88 248.384 283.88 249.376C283.88 250.368 284.093 251.12 284.52 251.632C284.957 252.144 285.544 252.4 286.28 252.4ZM294.971 253.552C294 253.552 293.269 253.29 292.779 252.768C292.299 252.245 292.059 251.44 292.059 250.352V245.36H293.515V250.32C293.515 251.024 293.659 251.541 293.947 251.872C294.235 252.202 294.683 252.368 295.291 252.368C295.952 252.368 296.485 252.149 296.891 251.712C297.307 251.264 297.515 250.672 297.515 249.936V245.36H298.971V253.408H297.563V251.632H297.771C297.547 252.24 297.189 252.714 296.699 253.056C296.208 253.386 295.632 253.552 294.971 253.552ZM304.139 253.552C303.488 253.552 302.88 253.466 302.315 253.296C301.76 253.125 301.302 252.88 300.939 252.56L301.403 251.552C301.798 251.85 302.23 252.08 302.699 252.24C303.179 252.389 303.67 252.464 304.171 252.464C304.779 252.464 305.238 252.352 305.547 252.128C305.867 251.904 306.027 251.605 306.027 251.232C306.027 250.933 305.926 250.693 305.723 250.512C305.52 250.33 305.2 250.197 304.763 250.112L303.243 249.808C302.56 249.648 302.043 249.392 301.691 249.04C301.35 248.677 301.179 248.213 301.179 247.648C301.179 247.178 301.307 246.762 301.563 246.4C301.819 246.026 302.182 245.738 302.651 245.536C303.131 245.322 303.691 245.216 304.331 245.216C304.918 245.216 305.462 245.301 305.963 245.472C306.475 245.642 306.896 245.893 307.227 246.224L306.747 247.2C306.416 246.912 306.043 246.693 305.627 246.544C305.222 246.384 304.806 246.304 304.379 246.304C303.76 246.304 303.302 246.426 303.003 246.672C302.704 246.906 302.555 247.216 302.555 247.6C302.555 247.888 302.646 248.128 302.827 248.32C303.008 248.501 303.302 248.64 303.707 248.736L305.227 249.04C305.942 249.189 306.48 249.434 306.843 249.776C307.206 250.117 307.387 250.57 307.387 251.136C307.387 251.637 307.248 252.069 306.971 252.432C306.704 252.794 306.326 253.072 305.835 253.264C305.355 253.456 304.79 253.552 304.139 253.552ZM312.444 253.552C311.74 253.552 311.122 253.386 310.588 253.056C310.055 252.725 309.639 252.245 309.34 251.616C309.042 250.986 308.892 250.24 308.892 249.376C308.892 248.512 309.042 247.77 309.34 247.152C309.639 246.522 310.055 246.042 310.588 245.712C311.122 245.381 311.74 245.216 312.444 245.216C313.159 245.216 313.778 245.397 314.3 245.76C314.834 246.112 315.186 246.597 315.356 247.216H315.164L315.34 245.36H316.748C316.716 245.68 316.684 246 316.652 246.32C316.631 246.64 316.62 246.954 316.62 247.264V253.408H315.164V251.568H315.34C315.17 252.176 314.818 252.661 314.284 253.024C313.762 253.376 313.148 253.552 312.444 253.552ZM312.78 252.4C313.506 252.4 314.087 252.144 314.524 251.632C314.962 251.12 315.18 250.368 315.18 249.376C315.18 248.384 314.962 247.637 314.524 247.136C314.087 246.634 313.506 246.384 312.78 246.384C312.055 246.384 311.468 246.634 311.02 247.136C310.583 247.637 310.364 248.384 310.364 249.376C310.364 250.368 310.583 251.12 311.02 251.632C311.458 252.144 312.044 252.4 312.78 252.4ZM319.06 253.408V247.264C319.06 246.954 319.049 246.64 319.028 246.32C319.006 246 318.974 245.68 318.932 245.36H320.34L320.5 247.088H320.308C320.553 246.48 320.932 246.016 321.444 245.696C321.956 245.376 322.553 245.216 323.236 245.216C324.185 245.216 324.9 245.477 325.38 246C325.86 246.512 326.1 247.312 326.1 248.4V253.408H324.644V248.48C324.644 247.744 324.5 247.216 324.212 246.896C323.924 246.565 323.476 246.4 322.868 246.4C322.142 246.4 321.566 246.618 321.14 247.056C320.724 247.493 320.516 248.085 320.516 248.832V253.408H319.06ZM331.554 253.552C330.85 253.552 330.231 253.386 329.698 253.056C329.164 252.725 328.748 252.245 328.45 251.616C328.151 250.986 328.002 250.24 328.002 249.376C328.002 248.512 328.151 247.77 328.45 247.152C328.748 246.522 329.164 246.042 329.698 245.712C330.231 245.381 330.85 245.216 331.554 245.216C332.258 245.216 332.871 245.392 333.394 245.744C333.927 246.096 334.284 246.581 334.466 247.2H334.274V241.632H335.73V253.408H334.29V251.536H334.466C334.295 252.165 333.943 252.661 333.41 253.024C332.887 253.376 332.268 253.552 331.554 253.552ZM331.89 252.4C332.615 252.4 333.196 252.144 333.634 251.632C334.082 251.12 334.306 250.368 334.306 249.376C334.306 248.384 334.082 247.637 333.634 247.136C333.196 246.634 332.615 246.384 331.89 246.384C331.164 246.384 330.578 246.634 330.13 247.136C329.692 247.637 329.474 248.384 329.474 249.376C329.474 250.368 329.692 251.12 330.13 251.632C330.578 252.144 331.164 252.4 331.89 252.4ZM340.889 253.552C340.238 253.552 339.63 253.466 339.065 253.296C338.51 253.125 338.052 252.88 337.689 252.56L338.153 251.552C338.548 251.85 338.98 252.08 339.449 252.24C339.929 252.389 340.42 252.464 340.921 252.464C341.529 252.464 341.988 252.352 342.297 252.128C342.617 251.904 342.777 251.605 342.777 251.232C342.777 250.933 342.676 250.693 342.473 250.512C342.27 250.33 341.95 250.197 341.513 250.112L339.993 249.808C339.31 249.648 338.793 249.392 338.441 249.04C338.1 248.677 337.929 248.213 337.929 247.648C337.929 247.178 338.057 246.762 338.313 246.4C338.569 246.026 338.932 245.738 339.401 245.536C339.881 245.322 340.441 245.216 341.081 245.216C341.668 245.216 342.212 245.301 342.713 245.472C343.225 245.642 343.646 245.893 343.977 246.224L343.497 247.2C343.166 246.912 342.793 246.693 342.377 246.544C341.972 246.384 341.556 246.304 341.129 246.304C340.51 246.304 340.052 246.426 339.753 246.672C339.454 246.906 339.305 247.216 339.305 247.6C339.305 247.888 339.396 248.128 339.577 248.32C339.758 248.501 340.052 248.64 340.457 248.736L341.977 249.04C342.692 249.189 343.23 249.434 343.593 249.776C343.956 250.117 344.137 250.57 344.137 251.136C344.137 251.637 343.998 252.069 343.721 252.432C343.454 252.794 343.076 253.072 342.585 253.264C342.105 253.456 341.54 253.552 340.889 253.552ZM83.608 281.552C82.8187 281.552 82.136 281.386 81.56 281.056C80.984 280.714 80.536 280.234 80.216 279.616C79.896 278.986 79.736 278.24 79.736 277.376C79.736 276.522 79.896 275.786 80.216 275.168C80.536 274.538 80.984 274.058 81.56 273.728C82.136 273.386 82.8187 273.216 83.608 273.216C84.3973 273.216 85.08 273.386 85.656 273.728C86.2427 274.058 86.6907 274.538 87 275.168C87.32 275.786 87.48 276.522 87.48 277.376C87.48 278.24 87.32 278.986 87 279.616C86.6907 280.234 86.2427 280.714 85.656 281.056C85.08 281.386 84.3973 281.552 83.608 281.552ZM83.608 280.4C84.3333 280.4 84.9147 280.144 85.352 279.632C85.7893 279.12 86.008 278.368 86.008 277.376C86.008 276.384 85.7893 275.637 85.352 275.136C84.9147 274.634 84.3333 274.384 83.608 274.384C82.872 274.384 82.2853 274.634 81.848 275.136C81.4213 275.637 81.208 276.384 81.208 277.376C81.208 278.368 81.4213 279.12 81.848 279.632C82.2853 280.144 82.872 280.4 83.608 280.4ZM89.8046 281.408V274.48H88.2366V273.36H90.2046L89.8046 273.728V272.432C89.8046 271.493 90.0393 270.784 90.5086 270.304C90.978 269.813 91.6606 269.568 92.5566 269.568C92.77 269.568 92.994 269.584 93.2286 269.616C93.474 269.648 93.6766 269.701 93.8366 269.776V270.96C93.7086 270.906 93.5486 270.864 93.3566 270.832C93.1646 270.8 92.978 270.784 92.7966 270.784C92.4766 270.784 92.1993 270.848 91.9646 270.976C91.73 271.104 91.554 271.296 91.4366 271.552C91.3193 271.797 91.2606 272.122 91.2606 272.528V273.664L91.0366 273.36H93.4846V274.48H91.2606V281.408H89.8046ZM101.811 281.552C101.16 281.552 100.552 281.466 99.987 281.296C99.4323 281.125 98.9737 280.88 98.611 280.56L99.075 279.552C99.4697 279.85 99.9017 280.08 100.371 280.24C100.851 280.389 101.342 280.464 101.843 280.464C102.451 280.464 102.91 280.352 103.219 280.128C103.539 279.904 103.699 279.605 103.699 279.232C103.699 278.933 103.598 278.693 103.395 278.512C103.192 278.33 102.872 278.197 102.435 278.112L100.915 277.808C100.232 277.648 99.715 277.392 99.363 277.04C99.0217 276.677 98.851 276.213 98.851 275.648C98.851 275.178 98.979 274.762 99.235 274.4C99.491 274.026 99.8537 273.738 100.323 273.536C100.803 273.322 101.363 273.216 102.003 273.216C102.59 273.216 103.134 273.301 103.635 273.472C104.147 273.642 104.568 273.893 104.899 274.224L104.419 275.2C104.088 274.912 103.715 274.693 103.299 274.544C102.894 274.384 102.478 274.304 102.051 274.304C101.432 274.304 100.974 274.426 100.675 274.672C100.376 274.906 100.227 275.216 100.227 275.6C100.227 275.888 100.318 276.128 100.499 276.32C100.68 276.501 100.974 276.64 101.379 276.736L102.899 277.04C103.614 277.189 104.152 277.434 104.515 277.776C104.878 278.117 105.059 278.57 105.059 279.136C105.059 279.637 104.92 280.069 104.643 280.432C104.376 280.794 103.998 281.072 103.507 281.264C103.027 281.456 102.462 281.552 101.811 281.552ZM107.044 284.864V275.264C107.044 274.954 107.033 274.64 107.012 274.32C106.991 274 106.959 273.68 106.916 273.36H108.324L108.5 275.216H108.324C108.484 274.597 108.825 274.112 109.348 273.76C109.871 273.397 110.495 273.216 111.22 273.216C111.935 273.216 112.559 273.381 113.092 273.712C113.625 274.042 114.036 274.522 114.324 275.152C114.623 275.77 114.772 276.512 114.772 277.376C114.772 278.24 114.623 278.986 114.324 279.616C114.036 280.245 113.625 280.725 113.092 281.056C112.559 281.386 111.935 281.552 111.22 281.552C110.505 281.552 109.887 281.376 109.364 281.024C108.852 280.661 108.505 280.176 108.324 279.568H108.5V284.864H107.044ZM110.884 280.4C111.62 280.4 112.207 280.144 112.644 279.632C113.081 279.12 113.3 278.368 113.3 277.376C113.3 276.384 113.081 275.637 112.644 275.136C112.207 274.634 111.62 274.384 110.884 274.384C110.148 274.384 109.561 274.634 109.124 275.136C108.697 275.637 108.484 276.384 108.484 277.376C108.484 278.368 108.697 279.12 109.124 279.632C109.561 280.144 110.148 280.4 110.884 280.4ZM120.396 281.552C119.116 281.552 118.102 281.184 117.356 280.448C116.62 279.712 116.252 278.698 116.252 277.408C116.252 276.554 116.412 275.818 116.732 275.2C117.062 274.57 117.516 274.085 118.092 273.744C118.668 273.392 119.34 273.216 120.108 273.216C120.844 273.216 121.468 273.376 121.98 273.696C122.492 274.005 122.881 274.448 123.148 275.024C123.414 275.6 123.548 276.282 123.548 277.072V277.552H117.388V276.688H122.556L122.284 276.896C122.284 276.064 122.097 275.418 121.724 274.96C121.361 274.501 120.822 274.272 120.108 274.272C119.329 274.272 118.726 274.544 118.3 275.088C117.873 275.621 117.66 276.352 117.66 277.28V277.424C117.66 278.405 117.9 279.146 118.38 279.648C118.87 280.149 119.548 280.4 120.412 280.4C120.892 280.4 121.34 280.33 121.756 280.192C122.172 280.053 122.572 279.824 122.956 279.504L123.436 280.512C123.073 280.842 122.62 281.098 122.076 281.28C121.542 281.461 120.982 281.552 120.396 281.552ZM128.906 281.552C128.106 281.552 127.413 281.386 126.826 281.056C126.24 280.714 125.781 280.229 125.45 279.6C125.13 278.96 124.97 278.202 124.97 277.328C124.97 276.464 125.136 275.728 125.466 275.12C125.797 274.501 126.256 274.032 126.842 273.712C127.429 273.381 128.117 273.216 128.906 273.216C129.429 273.216 129.936 273.306 130.426 273.488C130.917 273.658 131.317 273.909 131.626 274.24L131.13 275.264C130.821 274.965 130.48 274.746 130.106 274.608C129.733 274.458 129.365 274.384 129.002 274.384C128.213 274.384 127.594 274.64 127.146 275.152C126.698 275.653 126.474 276.384 126.474 277.344C126.474 278.314 126.698 279.061 127.146 279.584C127.594 280.106 128.213 280.368 129.002 280.368C129.354 280.368 129.717 280.298 130.09 280.16C130.464 280.021 130.81 279.802 131.13 279.504L131.626 280.512C131.306 280.853 130.896 281.114 130.394 281.296C129.904 281.466 129.408 281.552 128.906 281.552ZM133.404 281.408V273.36H134.86V281.408H133.404ZM133.276 271.6V270.032H135.004V271.6H133.276ZM140.366 281.552C139.662 281.552 139.043 281.386 138.51 281.056C137.977 280.725 137.561 280.245 137.262 279.616C136.963 278.986 136.814 278.24 136.814 277.376C136.814 276.512 136.963 275.77 137.262 275.152C137.561 274.522 137.977 274.042 138.51 273.712C139.043 273.381 139.662 273.216 140.366 273.216C141.081 273.216 141.699 273.397 142.222 273.76C142.755 274.112 143.107 274.597 143.278 275.216H143.086L143.262 273.36H144.67C144.638 273.68 144.606 274 144.574 274.32C144.553 274.64 144.542 274.954 144.542 275.264V281.408H143.086V279.568H143.262C143.091 280.176 142.739 280.661 142.206 281.024C141.683 281.376 141.07 281.552 140.366 281.552ZM140.702 280.4C141.427 280.4 142.009 280.144 142.446 279.632C142.883 279.12 143.102 278.368 143.102 277.376C143.102 276.384 142.883 275.637 142.446 275.136C142.009 274.634 141.427 274.384 140.702 274.384C139.977 274.384 139.39 274.634 138.942 275.136C138.505 275.637 138.286 276.384 138.286 277.376C138.286 278.368 138.505 279.12 138.942 279.632C139.379 280.144 139.966 280.4 140.702 280.4ZM146.982 281.408V269.632H148.438V281.408H146.982ZM150.872 281.408V273.36H152.328V281.408H150.872ZM150.744 271.6V270.032H152.472V271.6H150.744ZM157.483 281.552C156.832 281.552 156.224 281.466 155.659 281.296C155.104 281.125 154.646 280.88 154.283 280.56L154.747 279.552C155.142 279.85 155.574 280.08 156.043 280.24C156.523 280.389 157.014 280.464 157.515 280.464C158.123 280.464 158.582 280.352 158.891 280.128C159.211 279.904 159.371 279.605 159.371 279.232C159.371 278.933 159.27 278.693 159.067 278.512C158.864 278.33 158.544 278.197 158.107 278.112L156.587 277.808C155.904 277.648 155.387 277.392 155.035 277.04C154.694 276.677 154.523 276.213 154.523 275.648C154.523 275.178 154.651 274.762 154.907 274.4C155.163 274.026 155.526 273.738 155.995 273.536C156.475 273.322 157.035 273.216 157.675 273.216C158.262 273.216 158.806 273.301 159.307 273.472C159.819 273.642 160.24 273.893 160.571 274.224L160.091 275.2C159.76 274.912 159.387 274.693 158.971 274.544C158.566 274.384 158.15 274.304 157.723 274.304C157.104 274.304 156.646 274.426 156.347 274.672C156.048 274.906 155.899 275.216 155.899 275.6C155.899 275.888 155.99 276.128 156.171 276.32C156.352 276.501 156.646 276.64 157.051 276.736L158.571 277.04C159.286 277.189 159.824 277.434 160.187 277.776C160.55 278.117 160.731 278.57 160.731 279.136C160.731 279.637 160.592 280.069 160.315 280.432C160.048 280.794 159.67 281.072 159.179 281.264C158.699 281.456 158.134 281.552 157.483 281.552ZM165.646 281.552C164.803 281.552 164.163 281.322 163.726 280.864C163.299 280.394 163.086 279.69 163.086 278.752V274.48H161.518V273.36H163.086V271.2L164.542 270.8V273.36H166.814V274.48H164.542V278.624C164.542 279.242 164.649 279.685 164.862 279.952C165.086 280.208 165.406 280.336 165.822 280.336C166.035 280.336 166.217 280.32 166.366 280.288C166.526 280.245 166.67 280.197 166.798 280.144V281.344C166.638 281.408 166.451 281.456 166.238 281.488C166.035 281.53 165.838 281.552 165.646 281.552ZM169.071 283.312L168.415 282.8C168.714 282.49 168.917 282.197 169.023 281.92C169.13 281.653 169.183 281.376 169.183 281.088L169.503 281.408H168.335V279.632H170.111V280.864C170.111 281.322 170.037 281.744 169.887 282.128C169.738 282.522 169.466 282.917 169.071 283.312ZM180.113 284.992C179.409 284.992 178.763 284.906 178.177 284.736C177.59 284.565 177.062 284.304 176.593 283.952L176.977 282.88C177.307 283.104 177.633 283.285 177.953 283.424C178.273 283.562 178.603 283.664 178.945 283.728C179.297 283.792 179.659 283.824 180.033 283.824C180.822 283.824 181.414 283.621 181.809 283.216C182.203 282.81 182.401 282.234 182.401 281.488V279.232H182.561C182.39 279.84 182.038 280.325 181.505 280.688C180.982 281.04 180.363 281.216 179.649 281.216C178.923 281.216 178.289 281.056 177.745 280.736C177.211 280.405 176.795 279.941 176.497 279.344C176.198 278.736 176.049 278.026 176.049 277.216C176.049 276.394 176.198 275.685 176.497 275.088C176.795 274.49 177.211 274.032 177.745 273.712C178.289 273.381 178.923 273.216 179.649 273.216C180.363 273.216 180.982 273.392 181.505 273.744C182.027 274.096 182.374 274.581 182.545 275.2L182.401 275.056L182.545 273.36H183.953C183.921 273.68 183.889 274 183.857 274.32C183.835 274.64 183.825 274.954 183.825 275.264V281.312C183.825 282.506 183.51 283.418 182.881 284.048C182.262 284.677 181.339 284.992 180.113 284.992ZM179.969 280.064C180.705 280.064 181.291 279.813 181.729 279.312C182.166 278.81 182.385 278.112 182.385 277.216C182.385 276.309 182.166 275.61 181.729 275.12C181.291 274.629 180.705 274.384 179.969 274.384C179.222 274.384 178.625 274.629 178.177 275.12C177.739 275.61 177.521 276.309 177.521 277.216C177.521 278.112 177.739 278.81 178.177 279.312C178.625 279.813 179.222 280.064 179.969 280.064ZM189.927 281.552C188.647 281.552 187.634 281.184 186.887 280.448C186.151 279.712 185.783 278.698 185.783 277.408C185.783 276.554 185.943 275.818 186.263 275.2C186.594 274.57 187.047 274.085 187.623 273.744C188.199 273.392 188.871 273.216 189.639 273.216C190.375 273.216 190.999 273.376 191.511 273.696C192.023 274.005 192.412 274.448 192.679 275.024C192.946 275.6 193.079 276.282 193.079 277.072V277.552H186.919V276.688H192.087L191.815 276.896C191.815 276.064 191.628 275.418 191.255 274.96C190.892 274.501 190.354 274.272 189.639 274.272C188.86 274.272 188.258 274.544 187.831 275.088C187.404 275.621 187.191 276.352 187.191 277.28V277.424C187.191 278.405 187.431 279.146 187.911 279.648C188.402 280.149 189.079 280.4 189.943 280.4C190.423 280.4 190.871 280.33 191.287 280.192C191.703 280.053 192.103 279.824 192.487 279.504L192.967 280.512C192.604 280.842 192.151 281.098 191.607 281.28C191.074 281.461 190.514 281.552 189.927 281.552ZM194.982 281.408V275.264C194.982 274.954 194.971 274.64 194.95 274.32C194.928 274 194.896 273.68 194.854 273.36H196.262L196.422 275.088H196.23C196.475 274.48 196.854 274.016 197.366 273.696C197.878 273.376 198.475 273.216 199.158 273.216C200.107 273.216 200.822 273.477 201.302 274C201.782 274.512 202.022 275.312 202.022 276.4V281.408H200.566V276.48C200.566 275.744 200.422 275.216 200.134 274.896C199.846 274.565 199.398 274.4 198.79 274.4C198.064 274.4 197.488 274.618 197.062 275.056C196.646 275.493 196.438 276.085 196.438 276.832V281.408H194.982ZM208.068 281.552C206.788 281.552 205.774 281.184 205.028 280.448C204.292 279.712 203.924 278.698 203.924 277.408C203.924 276.554 204.084 275.818 204.404 275.2C204.734 274.57 205.188 274.085 205.764 273.744C206.34 273.392 207.012 273.216 207.78 273.216C208.516 273.216 209.14 273.376 209.652 273.696C210.164 274.005 210.553 274.448 210.82 275.024C211.086 275.6 211.22 276.282 211.22 277.072V277.552H205.06V276.688H210.228L209.956 276.896C209.956 276.064 209.769 275.418 209.396 274.96C209.033 274.501 208.494 274.272 207.78 274.272C207.001 274.272 206.398 274.544 205.972 275.088C205.545 275.621 205.332 276.352 205.332 277.28V277.424C205.332 278.405 205.572 279.146 206.052 279.648C206.542 280.149 207.22 280.4 208.084 280.4C208.564 280.4 209.012 280.33 209.428 280.192C209.844 280.053 210.244 279.824 210.628 279.504L211.108 280.512C210.745 280.842 210.292 281.098 209.748 281.28C209.214 281.461 208.654 281.552 208.068 281.552ZM213.106 281.408V275.328C213.106 275.008 213.096 274.682 213.074 274.352C213.064 274.01 213.037 273.68 212.994 273.36H214.402L214.578 275.376L214.338 275.392C214.445 274.901 214.626 274.496 214.882 274.176C215.149 273.845 215.464 273.605 215.826 273.456C216.2 273.296 216.584 273.216 216.978 273.216C217.149 273.216 217.293 273.221 217.41 273.232C217.528 273.242 217.645 273.269 217.762 273.312L217.73 274.608C217.57 274.544 217.421 274.506 217.282 274.496C217.154 274.474 216.994 274.464 216.802 274.464C216.333 274.464 215.928 274.57 215.586 274.784C215.256 274.997 215 275.28 214.818 275.632C214.648 275.984 214.562 276.362 214.562 276.768V281.408H213.106ZM222.038 281.552C221.334 281.552 220.715 281.386 220.182 281.056C219.649 280.725 219.233 280.245 218.934 279.616C218.635 278.986 218.486 278.24 218.486 277.376C218.486 276.512 218.635 275.77 218.934 275.152C219.233 274.522 219.649 274.042 220.182 273.712C220.715 273.381 221.334 273.216 222.038 273.216C222.753 273.216 223.371 273.397 223.894 273.76C224.427 274.112 224.779 274.597 224.95 275.216H224.758L224.934 273.36H226.342C226.31 273.68 226.278 274 226.246 274.32C226.225 274.64 226.214 274.954 226.214 275.264V281.408H224.758V279.568H224.934C224.763 280.176 224.411 280.661 223.878 281.024C223.355 281.376 222.742 281.552 222.038 281.552ZM222.374 280.4C223.099 280.4 223.681 280.144 224.118 279.632C224.555 279.12 224.774 278.368 224.774 277.376C224.774 276.384 224.555 275.637 224.118 275.136C223.681 274.634 223.099 274.384 222.374 274.384C221.649 274.384 221.062 274.634 220.614 275.136C220.177 275.637 219.958 276.384 219.958 277.376C219.958 278.368 220.177 279.12 220.614 279.632C221.051 280.144 221.638 280.4 222.374 280.4ZM228.654 281.408V269.632H230.11V281.408H228.654ZM233.04 283.312L232.384 282.8C232.683 282.49 232.885 282.197 232.992 281.92C233.099 281.653 233.152 281.376 233.152 281.088L233.472 281.408H232.304V279.632H234.08V280.864C234.08 281.322 234.005 281.744 233.856 282.128C233.707 282.522 233.435 282.917 233.04 283.312ZM243.569 281.552C242.865 281.552 242.247 281.386 241.713 281.056C241.18 280.725 240.764 280.245 240.465 279.616C240.167 278.986 240.017 278.24 240.017 277.376C240.017 276.512 240.167 275.77 240.465 275.152C240.764 274.522 241.18 274.042 241.713 273.712C242.247 273.381 242.865 273.216 243.569 273.216C244.284 273.216 244.903 273.397 245.425 273.76C245.959 274.112 246.311 274.597 246.481 275.216H246.289L246.465 273.36H247.873C247.841 273.68 247.809 274 247.777 274.32C247.756 274.64 247.745 274.954 247.745 275.264V281.408H246.289V279.568H246.465C246.295 280.176 245.943 280.661 245.409 281.024C244.887 281.376 244.273 281.552 243.569 281.552ZM243.905 280.4C244.631 280.4 245.212 280.144 245.649 279.632C246.087 279.12 246.305 278.368 246.305 277.376C246.305 276.384 246.087 275.637 245.649 275.136C245.212 274.634 244.631 274.384 243.905 274.384C243.18 274.384 242.593 274.634 242.145 275.136C241.708 275.637 241.489 276.384 241.489 277.376C241.489 278.368 241.708 279.12 242.145 279.632C242.583 280.144 243.169 280.4 243.905 280.4ZM250.185 281.408V275.264C250.185 274.954 250.174 274.64 250.153 274.32C250.131 274 250.099 273.68 250.057 273.36H251.465L251.625 275.088H251.433C251.678 274.48 252.057 274.016 252.569 273.696C253.081 273.376 253.678 273.216 254.361 273.216C255.31 273.216 256.025 273.477 256.505 274C256.985 274.512 257.225 275.312 257.225 276.4V281.408H255.769V276.48C255.769 275.744 255.625 275.216 255.337 274.896C255.049 274.565 254.601 274.4 253.993 274.4C253.267 274.4 252.691 274.618 252.265 275.056C251.849 275.493 251.641 276.085 251.641 276.832V281.408H250.185ZM262.679 281.552C261.975 281.552 261.356 281.386 260.823 281.056C260.289 280.725 259.873 280.245 259.575 279.616C259.276 278.986 259.127 278.24 259.127 277.376C259.127 276.512 259.276 275.77 259.575 275.152C259.873 274.522 260.289 274.042 260.823 273.712C261.356 273.381 261.975 273.216 262.679 273.216C263.383 273.216 263.996 273.392 264.519 273.744C265.052 274.096 265.409 274.581 265.591 275.2H265.399V269.632H266.855V281.408H265.415V279.536H265.591C265.42 280.165 265.068 280.661 264.535 281.024C264.012 281.376 263.393 281.552 262.679 281.552ZM263.015 280.4C263.74 280.4 264.321 280.144 264.759 279.632C265.207 279.12 265.431 278.368 265.431 277.376C265.431 276.384 265.207 275.637 264.759 275.136C264.321 274.634 263.74 274.384 263.015 274.384C262.289 274.384 261.703 274.634 261.255 275.136C260.817 275.637 260.599 276.384 260.599 277.376C260.599 278.368 260.817 279.12 261.255 279.632C261.703 280.144 262.289 280.4 263.015 280.4ZM276.521 281.552C275.678 281.552 275.038 281.322 274.601 280.864C274.174 280.394 273.961 279.69 273.961 278.752V274.48H272.393V273.36H273.961V271.2L275.417 270.8V273.36H277.689V274.48H275.417V278.624C275.417 279.242 275.524 279.685 275.737 279.952C275.961 280.208 276.281 280.336 276.697 280.336C276.91 280.336 277.092 280.32 277.241 280.288C277.401 280.245 277.545 280.197 277.673 280.144V281.344C277.513 281.408 277.326 281.456 277.113 281.488C276.91 281.53 276.713 281.552 276.521 281.552ZM279.2 281.408V275.328C279.2 275.008 279.189 274.682 279.168 274.352C279.157 274.01 279.131 273.68 279.088 273.36H280.496L280.672 275.376L280.432 275.392C280.539 274.901 280.72 274.496 280.976 274.176C281.243 273.845 281.557 273.605 281.92 273.456C282.293 273.296 282.677 273.216 283.072 273.216C283.243 273.216 283.387 273.221 283.504 273.232C283.621 273.242 283.739 273.269 283.856 273.312L283.824 274.608C283.664 274.544 283.515 274.506 283.376 274.496C283.248 274.474 283.088 274.464 282.896 274.464C282.427 274.464 282.021 274.57 281.68 274.784C281.349 274.997 281.093 275.28 280.912 275.632C280.741 275.984 280.656 276.362 280.656 276.768V281.408H279.2ZM288.002 281.552C287.031 281.552 286.301 281.29 285.81 280.768C285.33 280.245 285.09 279.44 285.09 278.352V273.36H286.546V278.32C286.546 279.024 286.69 279.541 286.978 279.872C287.266 280.202 287.714 280.368 288.322 280.368C288.983 280.368 289.517 280.149 289.922 279.712C290.338 279.264 290.546 278.672 290.546 277.936V273.36H292.002V281.408H290.594V279.632H290.802C290.578 280.24 290.221 280.714 289.73 281.056C289.239 281.386 288.663 281.552 288.002 281.552ZM297.17 281.552C296.52 281.552 295.912 281.466 295.346 281.296C294.792 281.125 294.333 280.88 293.97 280.56L294.434 279.552C294.829 279.85 295.261 280.08 295.73 280.24C296.21 280.389 296.701 280.464 297.202 280.464C297.81 280.464 298.269 280.352 298.578 280.128C298.898 279.904 299.058 279.605 299.058 279.232C299.058 278.933 298.957 278.693 298.754 278.512C298.552 278.33 298.232 278.197 297.794 278.112L296.274 277.808C295.592 277.648 295.074 277.392 294.722 277.04C294.381 276.677 294.21 276.213 294.21 275.648C294.21 275.178 294.338 274.762 294.594 274.4C294.85 274.026 295.213 273.738 295.682 273.536C296.162 273.322 296.722 273.216 297.362 273.216C297.949 273.216 298.493 273.301 298.994 273.472C299.506 273.642 299.928 273.893 300.258 274.224L299.778 275.2C299.448 274.912 299.074 274.693 298.658 274.544C298.253 274.384 297.837 274.304 297.41 274.304C296.792 274.304 296.333 274.426 296.034 274.672C295.736 274.906 295.586 275.216 295.586 275.6C295.586 275.888 295.677 276.128 295.858 276.32C296.04 276.501 296.333 276.64 296.738 276.736L298.258 277.04C298.973 277.189 299.512 277.434 299.874 277.776C300.237 278.117 300.418 278.57 300.418 279.136C300.418 279.637 300.28 280.069 300.002 280.432C299.736 280.794 299.357 281.072 298.866 281.264C298.386 281.456 297.821 281.552 297.17 281.552ZM305.333 281.552C304.491 281.552 303.851 281.322 303.413 280.864C302.987 280.394 302.773 279.69 302.773 278.752V274.48H301.205V273.36H302.773V271.2L304.229 270.8V273.36H306.501V274.48H304.229V278.624C304.229 279.242 304.336 279.685 304.549 279.952C304.773 280.208 305.093 280.336 305.509 280.336C305.723 280.336 305.904 280.32 306.053 280.288C306.213 280.245 306.357 280.197 306.485 280.144V281.344C306.325 281.408 306.139 281.456 305.925 281.488C305.723 281.53 305.525 281.552 305.333 281.552ZM311.614 281.552C310.334 281.552 309.321 281.184 308.574 280.448C307.838 279.712 307.47 278.698 307.47 277.408C307.47 276.554 307.63 275.818 307.95 275.2C308.281 274.57 308.734 274.085 309.31 273.744C309.886 273.392 310.558 273.216 311.326 273.216C312.062 273.216 312.686 273.376 313.198 273.696C313.71 274.005 314.1 274.448 314.366 275.024C314.633 275.6 314.766 276.282 314.766 277.072V277.552H308.606V276.688H313.774L313.502 276.896C313.502 276.064 313.316 275.418 312.942 274.96C312.58 274.501 312.041 274.272 311.326 274.272C310.548 274.272 309.945 274.544 309.518 275.088C309.092 275.621 308.878 276.352 308.878 277.28V277.424C308.878 278.405 309.118 279.146 309.598 279.648C310.089 280.149 310.766 280.4 311.63 280.4C312.11 280.4 312.558 280.33 312.974 280.192C313.39 280.053 313.79 279.824 314.174 279.504L314.654 280.512C314.292 280.842 313.838 281.098 313.294 281.28C312.761 281.461 312.201 281.552 311.614 281.552ZM319.741 281.552C319.037 281.552 318.418 281.386 317.885 281.056C317.352 280.725 316.936 280.245 316.637 279.616C316.338 278.986 316.189 278.24 316.189 277.376C316.189 276.512 316.338 275.77 316.637 275.152C316.936 274.522 317.352 274.042 317.885 273.712C318.418 273.381 319.037 273.216 319.741 273.216C320.445 273.216 321.058 273.392 321.581 273.744C322.114 274.096 322.472 274.581 322.653 275.2H322.461V269.632H323.917V281.408H322.477V279.536H322.653C322.482 280.165 322.13 280.661 321.597 281.024C321.074 281.376 320.456 281.552 319.741 281.552ZM320.077 280.4C320.802 280.4 321.384 280.144 321.821 279.632C322.269 279.12 322.493 278.368 322.493 277.376C322.493 276.384 322.269 275.637 321.821 275.136C321.384 274.634 320.802 274.384 320.077 274.384C319.352 274.384 318.765 274.634 318.317 275.136C317.88 275.637 317.661 276.384 317.661 277.376C317.661 278.368 317.88 279.12 318.317 279.632C318.765 280.144 319.352 280.4 320.077 280.4ZM80.216 309.408V297.632H81.672V303.104H81.464C81.6987 302.485 82.0773 302.016 82.6 301.696C83.1227 301.376 83.7253 301.216 84.408 301.216C85.3787 301.216 86.0933 301.477 86.552 302C87.0213 302.522 87.256 303.312 87.256 304.368V309.408H85.8V304.448C85.8 303.733 85.6613 303.216 85.384 302.896C85.1067 302.565 84.6533 302.4 84.024 302.4C83.32 302.4 82.7493 302.618 82.312 303.056C81.8853 303.493 81.672 304.074 81.672 304.8V309.408H80.216ZM93.0299 309.552C92.2405 309.552 91.5579 309.386 90.9819 309.056C90.4059 308.714 89.9579 308.234 89.6379 307.616C89.3179 306.986 89.1579 306.24 89.1579 305.376C89.1579 304.522 89.3179 303.786 89.6379 303.168C89.9579 302.538 90.4059 302.058 90.9819 301.728C91.5579 301.386 92.2405 301.216 93.0299 301.216C93.8192 301.216 94.5019 301.386 95.0779 301.728C95.6645 302.058 96.1125 302.538 96.4219 303.168C96.7419 303.786 96.9019 304.522 96.9019 305.376C96.9019 306.24 96.7419 306.986 96.4219 307.616C96.1125 308.234 95.6645 308.714 95.0779 309.056C94.5019 309.386 93.8192 309.552 93.0299 309.552ZM93.0299 308.4C93.7552 308.4 94.3365 308.144 94.7739 307.632C95.2112 307.12 95.4299 306.368 95.4299 305.376C95.4299 304.384 95.2112 303.637 94.7739 303.136C94.3365 302.634 93.7552 302.384 93.0299 302.384C92.2939 302.384 91.7072 302.634 91.2699 303.136C90.8432 303.637 90.6299 304.384 90.6299 305.376C90.6299 306.368 90.8432 307.12 91.2699 307.632C91.7072 308.144 92.2939 308.4 93.0299 308.4ZM101.577 309.552C100.926 309.552 100.318 309.466 99.7526 309.296C99.198 309.125 98.7393 308.88 98.3766 308.56L98.8406 307.552C99.2353 307.85 99.6673 308.08 100.137 308.24C100.617 308.389 101.107 308.464 101.609 308.464C102.217 308.464 102.675 308.352 102.985 308.128C103.305 307.904 103.465 307.605 103.465 307.232C103.465 306.933 103.363 306.693 103.161 306.512C102.958 306.33 102.638 306.197 102.201 306.112L100.681 305.808C99.998 305.648 99.4806 305.392 99.1286 305.04C98.7873 304.677 98.6166 304.213 98.6166 303.648C98.6166 303.178 98.7446 302.762 99.0006 302.4C99.2566 302.026 99.6193 301.738 100.089 301.536C100.569 301.322 101.129 301.216 101.769 301.216C102.355 301.216 102.899 301.301 103.401 301.472C103.913 301.642 104.334 301.893 104.665 302.224L104.185 303.2C103.854 302.912 103.481 302.693 103.065 302.544C102.659 302.384 102.243 302.304 101.817 302.304C101.198 302.304 100.739 302.426 100.441 302.672C100.142 302.906 99.9926 303.216 99.9926 303.6C99.9926 303.888 100.083 304.128 100.265 304.32C100.446 304.501 100.739 304.64 101.145 304.736L102.665 305.04C103.379 305.189 103.918 305.434 104.281 305.776C104.643 306.117 104.825 306.57 104.825 307.136C104.825 307.637 104.686 308.069 104.409 308.432C104.142 308.794 103.763 309.072 103.273 309.264C102.793 309.456 102.227 309.552 101.577 309.552ZM106.81 312.864V303.264C106.81 302.954 106.799 302.64 106.778 302.32C106.756 302 106.724 301.68 106.682 301.36H108.09L108.266 303.216H108.09C108.25 302.597 108.591 302.112 109.114 301.76C109.636 301.397 110.26 301.216 110.986 301.216C111.7 301.216 112.324 301.381 112.858 301.712C113.391 302.042 113.802 302.522 114.09 303.152C114.388 303.77 114.538 304.512 114.538 305.376C114.538 306.24 114.388 306.986 114.09 307.616C113.802 308.245 113.391 308.725 112.858 309.056C112.324 309.386 111.7 309.552 110.986 309.552C110.271 309.552 109.652 309.376 109.13 309.024C108.618 308.661 108.271 308.176 108.09 307.568H108.266V312.864H106.81ZM110.65 308.4C111.386 308.4 111.972 308.144 112.41 307.632C112.847 307.12 113.066 306.368 113.066 305.376C113.066 304.384 112.847 303.637 112.41 303.136C111.972 302.634 111.386 302.384 110.65 302.384C109.914 302.384 109.327 302.634 108.89 303.136C108.463 303.637 108.25 304.384 108.25 305.376C108.25 306.368 108.463 307.12 108.89 307.632C109.327 308.144 109.914 308.4 110.65 308.4ZM116.497 309.408V301.36H117.953V309.408H116.497ZM116.369 299.6V298.032H118.097V299.6H116.369ZM123.396 309.552C122.553 309.552 121.913 309.322 121.476 308.864C121.049 308.394 120.836 307.69 120.836 306.752V302.48H119.268V301.36H120.836V299.2L122.292 298.8V301.36H124.564V302.48H122.292V306.624C122.292 307.242 122.399 307.685 122.612 307.952C122.836 308.208 123.156 308.336 123.572 308.336C123.785 308.336 123.967 308.32 124.116 308.288C124.276 308.245 124.42 308.197 124.548 308.144V309.344C124.388 309.408 124.201 309.456 123.988 309.488C123.785 309.53 123.588 309.552 123.396 309.552ZM129.163 309.552C128.459 309.552 127.84 309.386 127.307 309.056C126.774 308.725 126.358 308.245 126.059 307.616C125.76 306.986 125.611 306.24 125.611 305.376C125.611 304.512 125.76 303.77 126.059 303.152C126.358 302.522 126.774 302.042 127.307 301.712C127.84 301.381 128.459 301.216 129.163 301.216C129.878 301.216 130.496 301.397 131.019 301.76C131.552 302.112 131.904 302.597 132.075 303.216H131.883L132.059 301.36H133.467C133.435 301.68 133.403 302 133.371 302.32C133.35 302.64 133.339 302.954 133.339 303.264V309.408H131.883V307.568H132.059C131.888 308.176 131.536 308.661 131.003 309.024C130.48 309.376 129.867 309.552 129.163 309.552ZM129.499 308.4C130.224 308.4 130.806 308.144 131.243 307.632C131.68 307.12 131.899 306.368 131.899 305.376C131.899 304.384 131.68 303.637 131.243 303.136C130.806 302.634 130.224 302.384 129.499 302.384C128.774 302.384 128.187 302.634 127.739 303.136C127.302 303.637 127.083 304.384 127.083 305.376C127.083 306.368 127.302 307.12 127.739 307.632C128.176 308.144 128.763 308.4 129.499 308.4ZM135.779 309.408V297.632H137.235V309.408H135.779ZM142.389 309.552C141.738 309.552 141.13 309.466 140.565 309.296C140.01 309.125 139.552 308.88 139.189 308.56L139.653 307.552C140.048 307.85 140.48 308.08 140.949 308.24C141.429 308.389 141.92 308.464 142.421 308.464C143.029 308.464 143.488 308.352 143.797 308.128C144.117 307.904 144.277 307.605 144.277 307.232C144.277 306.933 144.176 306.693 143.973 306.512C143.77 306.33 143.45 306.197 143.013 306.112L141.493 305.808C140.81 305.648 140.293 305.392 139.941 305.04C139.6 304.677 139.429 304.213 139.429 303.648C139.429 303.178 139.557 302.762 139.813 302.4C140.069 302.026 140.432 301.738 140.901 301.536C141.381 301.322 141.941 301.216 142.581 301.216C143.168 301.216 143.712 301.301 144.213 301.472C144.725 301.642 145.146 301.893 145.477 302.224L144.997 303.2C144.666 302.912 144.293 302.693 143.877 302.544C143.472 302.384 143.056 302.304 142.629 302.304C142.01 302.304 141.552 302.426 141.253 302.672C140.954 302.906 140.805 303.216 140.805 303.6C140.805 303.888 140.896 304.128 141.077 304.32C141.258 304.501 141.552 304.64 141.957 304.736L143.477 305.04C144.192 305.189 144.73 305.434 145.093 305.776C145.456 306.117 145.637 306.57 145.637 307.136C145.637 307.637 145.498 308.069 145.221 308.432C144.954 308.794 144.576 309.072 144.085 309.264C143.605 309.456 143.04 309.552 142.389 309.552Z" fill="#1C6289"/>
<g clip-path="url(#clip0_0_152)">
<path d="M225.215 107.315L216.137 115.98L177.803 152.566C176.797 153.529 175.506 154.01 174.215 154.01C172.801 154.01 171.388 153.437 170.362 152.3C168.339 150.067 168.603 146.574 170.931 144.669L216.137 107.827L221.118 103.771L225.215 107.315Z" fill="url(#paint0_linear_0_152)"/>
<path d="M215.741 116.421L206.805 124.942L205.982 116.185L210.872 112.201L215.741 116.421Z" fill="#3A81D6" fill-opacity="0.8"/>
<path d="M260.978 93.9078C260.978 110.429 247.681 123.826 231.294 123.826C220.966 123.826 211.868 118.51 206.551 110.439C203.43 105.707 201.611 100.023 201.611 93.9078C201.611 77.3868 214.907 64 231.294 64C238.695 64 245.455 66.7245 250.649 71.2311C256.972 76.7211 260.978 84.8433 260.978 93.9078Z" fill="url(#paint1_linear_0_152)"/>
<path d="M231.294 117.209C244.067 117.209 254.421 106.777 254.421 93.9079C254.421 81.0389 244.067 70.6064 231.294 70.6064C218.522 70.6064 208.168 81.0389 208.168 93.9079C208.168 106.777 218.522 117.209 231.294 117.209Z" fill="white"/>
<path opacity="0.06" d="M260.978 93.9079C260.978 110.429 247.681 123.826 231.294 123.826C220.966 123.826 211.868 118.51 206.551 110.439C240.026 107.694 248.85 79.1179 250.66 71.2312C256.972 76.7211 260.978 84.8434 260.978 93.9079Z" fill="#1A6FB5" fill-opacity="0.5"/>
<path d="M231.295 93.959C233.978 93.959 236.154 91.7671 236.154 89.0631C236.154 86.3591 233.978 84.1672 231.295 84.1672C228.611 84.1672 226.435 86.3591 226.435 89.0631C226.435 91.7671 228.601 93.959 231.295 93.959ZM231.295 96.4069C228.052 96.4069 221.576 98.0457 221.576 101.303V102.532C221.576 103.208 222.125 103.761 222.796 103.761H239.813C240.484 103.761 241.033 103.208 241.033 102.532V101.303C241.013 98.0559 234.537 96.4069 231.295 96.4069Z" fill="url(#paint2_linear_0_152)"/>
</g>
</g>
<defs>
<filter id="filter0_d_0_152" x="31" y="6" width="380" height="384" filterUnits="userSpaceOnUse" color-interpolation-filters="sRGB">
<feFlood flood-opacity="0" result="BackgroundImageFix"/>
<feColorMatrix in="SourceAlpha" type="matrix" values="0 0 0 0 0 0 0 0 0 0 0 0 0 0 0 0 0 0 127 0" result="hardAlpha"/>
<feOffset dx="6" dy="11"/>
<feGaussianBlur stdDeviation="7.5"/>
<feComposite in2="hardAlpha" operator="out"/>
<feColorMatrix type="matrix" values="0 0 0 0 0.270588 0 0 0 0 0.560784 0 0 0 0 0.964706 0 0 0 0.35 0"/>
<feBlend mode="normal" in2="BackgroundImageFix" result="effect1_dropShadow_0_152"/>
<feBlend mode="normal" in="SourceGraphic" in2="effect1_dropShadow_0_152" result="shape"/>
</filter>
<filter id="filter1_d_0_152" x="0" y="0" width="450" height="454" filterUnits="userSpaceOnUse" color-interpolation-filters="sRGB">
<feFlood flood-opacity="0" result="BackgroundImageFix"/>
<feColorMatrix in="SourceAlpha" type="matrix" values="0 0 0 0 0 0 0 0 0 0 0 0 0 0 0 0 0 0 127 0" result="hardAlpha"/>
<feOffset dx="10" dy="40"/>
<feGaussianBlur stdDeviation="25"/>
<feColorMatrix type="matrix" values="0 0 0 0 0.897151 0 0 0 0 0.915421 0 0 0 0 0.962796 0 0 0 0.4 0"/>
<feBlend mode="normal" in2="BackgroundImageFix" result="effect1_dropShadow_0_152"/>
<feBlend mode="normal" in="SourceGraphic" in2="effect1_dropShadow_0_152" result="shape"/>
</filter>
<linearGradient id="paint0_linear_0_152" x1="174.674" y1="148.327" x2="222.924" y2="104.792" gradientUnits="userSpaceOnUse">
<stop stop-color="#67C3F3"/>
<stop offset="1" stop-color="#5A98F2"/>
</linearGradient>
<linearGradient id="paint1_linear_0_152" x1="219.017" y1="66.1134" x2="241.781" y2="116.905" gradientUnits="userSpaceOnUse">
<stop stop-color="#6888C8"/>
<stop offset="1" stop-color="#5A98F2"/>
</linearGradient>
<linearGradient id="paint2_linear_0_152" x1="224.269" y1="92.3947" x2="241.92" y2="100.939" gradientUnits="userSpaceOnUse">
<stop stop-color="#B0F4FF"/>
<stop offset="0.071077" stop-color="#A6F1FF"/>
<stop offset="0.2937" stop-color="#8BE8FD"/>
<stop offset="0.5209" stop-color="#78E1FD"/>
<stop offset="0.7536" stop-color="#6DDDFC"/>
<stop offset="1" stop-color="#69DCFC"/>
</linearGradient>
<clipPath id="clip0_0_152">
<rect width="91.978" height="90" fill="white" transform="translate(169 64)"/>
</clipPath>
</defs>
</svg>
